<svg width="19" height="19" viewBox="0 0 19 19" xmlns="http://www.w3.org/2000/svg">
<path d="M7.12516 17.4167C7.56239 17.4167 7.91683 17.0623 7.91683 16.625C7.91683 16.1878 7.56239 15.8334 7.12516 15.8334C6.68794 15.8334 6.3335 16.1878 6.3335 16.625C6.3335 17.0623 6.68794 17.4167 7.12516 17.4167Z" stroke="currentColor" stroke-width="1.5" stroke-linecap="round" stroke-linejoin="round" fill="none" />
<path d="M15.8332 17.4167C16.2704 17.4167 16.6248 17.0623 16.6248 16.625C16.6248 16.1878 16.2704 15.8334 15.8332 15.8334C15.3959 15.8334 15.0415 16.1878 15.0415 16.625C15.0415 17.0623 15.3959 17.4167 15.8332 17.4167Z" stroke="currentColor" stroke-width="1.5" stroke-linecap="round" stroke-linejoin="round" fill="none" />
<path d="M0.791504 0.791626H3.95817L6.07984 11.392C6.15223 11.7565 6.35051 12.0839 6.63998 12.3169C6.92944 12.55 7.29164 12.6737 7.66317 12.6666H15.3582C15.7297 12.6737 16.0919 12.55 16.3814 12.3169C16.6708 12.0839 16.8691 11.7565 16.9415 11.392L18.2082 4.74996H4.74984" stroke="currentColor" stroke-width="1.5" stroke-linecap="round" stroke-linejoin="round" fill="none" />
</svg>
