<svg width="22" height="22" viewBox="0 0 22 22" xmlns="http://www.w3.org/2000/svg">
<path d="M19.9841 12.4923L19.8869 10.7588L18.8287 12.1352C18.7444 12.2448 18.565 12.4386 18.336 12.6152C18.4265 12.3154 18.5073 11.9735 18.5607 11.5963C18.7455 10.2901 18.6304 8.28541 17.0329 6.15244L16.3626 5.25748L15.9233 6.28577C15.4167 7.47188 14.5969 8.06695 13.8351 7.80171C13.2485 7.59761 12.7718 6.92635 12.5272 5.95994C12.2991 5.05854 12.1665 3.47235 12.8308 1.03447L13.1127 0L12.0667 0.235641C8.5383 1.03048 6.16071 3.53616 5.19082 7.48172C4.78313 9.14027 4.70635 10.7116 4.71778 11.7744C3.8841 11.1004 3.46777 10.509 3.45686 10.4934L2.66275 9.32667L2.30104 10.6927C2.10223 11.4436 2.00146 12.2203 2.00146 13.0014C2.00146 17.9262 5.97822 21.9389 10.8891 21.9986C10.926 21.9996 10.963 22 11.0001 22C11.0372 22 11.0742 21.9996 11.1111 21.9986C16.022 21.9389 19.9988 17.9262 19.9988 13.0014C19.9988 12.8366 19.9939 12.6653 19.9841 12.4923ZM11.0002 20.7099C9.33572 20.7099 7.98164 19.3558 7.98164 17.6914C7.98164 14.7868 9.35522 13.4856 10.4259 12.9125C10.2895 13.65 10.4104 14.3487 10.6377 14.869C10.9764 15.6444 11.5808 16.1523 12.2545 16.2275C12.5192 16.257 12.9621 16.2342 13.4265 15.8963C13.8075 16.412 14.0186 17.0411 14.0186 17.6914C14.0186 19.3558 12.6645 20.7099 11.0002 20.7099ZM14.8111 19.6997C15.1285 19.0997 15.3088 18.4162 15.3088 17.6914C15.3088 16.4699 14.7872 15.301 13.8778 14.4846L13.3487 14.0096L12.9273 14.5822C12.82 14.728 12.6083 14.9694 12.3979 14.9454C12.231 14.9268 11.9876 14.7362 11.82 14.3526C11.5883 13.8222 11.5413 12.9837 12.104 12.2212L12.997 11.011L11.5048 11.198C11.4545 11.2044 10.2589 11.3627 9.07331 12.2537C7.10486 13.7332 6.69163 16.0273 6.69163 17.6914C6.69163 18.4164 6.87189 19.1 7.18955 19.7001C4.86331 18.3715 3.29177 15.8666 3.29177 13.0014C3.29177 12.7569 3.30329 12.5131 3.32615 12.2707C3.76121 12.6829 4.351 13.163 5.10187 13.6085L6.2228 14.2731L6.07168 12.9785C6.06876 12.9534 5.7862 10.4356 6.45191 7.75693C7.2131 4.69373 8.84995 2.69238 11.3247 1.79309C10.9796 3.49731 10.9614 5.03104 11.2767 6.27653C11.6296 7.67095 12.4076 8.67101 13.4113 9.02017C14.1089 9.2629 14.8608 9.17267 15.5287 8.76614C15.9131 8.53213 16.2609 8.19908 16.5599 7.78211C17.2057 8.93544 17.4515 10.1351 17.291 11.3595C17.1392 12.5177 16.6625 13.2744 16.6593 13.2795L16.1074 14.1261L17.1077 14.2702C17.6113 14.3428 18.1372 14.232 18.6508 13.9485C18.3475 16.4123 16.8768 18.5198 14.8111 19.6997Z" fill="currentColor"/>
</svg>
