<svg width="24" height="22" viewBox="0 0 24 22" xmlns="http://www.w3.org/2000/svg">
<path d="M12.3613 22C6.4676 21.9593 1.7697 18.3006 0.676365 13.2028C-0.579257 7.34072 3.30719 1.63311 9.47426 0.275315C15.7865 -1.115 22.2099 2.9096 23.3459 8.98308C23.4569 9.60099 23.4996 10.2352 23.5424 10.8612C23.5765 11.2759 23.363 11.5117 23.0213 11.5198C22.6796 11.5279 22.4661 11.2921 22.4576 10.8775C22.4319 8.92616 21.8426 7.13745 20.7236 5.51135C18.4515 2.2185 14.2063 0.437925 10.2003 1.21032C5.77573 2.07215 2.88865 4.60887 1.83803 8.78794C0.39449 14.4793 4.48594 20.0975 10.5761 20.8536C14.5651 21.3496 17.8365 19.9918 20.3563 16.9997C20.399 16.9428 20.4417 16.8859 20.493 16.829C20.7322 16.5282 21.0567 16.4469 21.3215 16.6339C21.5949 16.8209 21.6205 17.1217 21.3813 17.4388C20.6894 18.3575 19.8694 19.1462 18.9213 19.821C16.8542 21.2601 14.548 21.9919 12.3613 22Z" fill="currentColor" stroke="currentColor" stroke-width="0.2"/>
<path d="M17.4695 11.7799C17.0765 12.3084 16.7178 12.7963 16.359 13.2841C16.1968 13.5036 16.0088 13.6662 15.6928 13.5849C15.3853 13.5036 15.2999 13.276 15.2657 13.0077C15.1034 11.7718 14.9411 10.5279 14.7788 9.29202C14.7618 9.19446 14.7532 9.08876 14.7532 8.9912C14.7447 8.67411 14.9326 8.44645 15.2315 8.41393C15.522 8.38141 15.7782 8.57654 15.8295 8.8855C15.8893 9.2595 15.9234 9.6335 15.9747 10.0075C16.043 10.536 16.1199 11.0726 16.1968 11.6986C16.4615 11.349 16.6751 11.0563 16.8886 10.7636C17.2901 10.227 17.6488 10.227 18.0503 10.7718C18.2553 11.0482 18.4688 11.3328 18.7336 11.6824C18.802 11.2189 18.8532 10.8368 18.9045 10.4547C18.9728 9.95872 19.0326 9.47089 19.1009 8.97493C19.1522 8.5928 19.3913 8.37328 19.7074 8.41393C20.0405 8.45458 20.2284 8.71476 20.1857 9.08876C20.032 10.2839 19.8697 11.4873 19.7074 12.6824C19.6903 12.8207 19.6732 12.967 19.6561 13.1052C19.622 13.3573 19.4938 13.5443 19.212 13.6012C18.9472 13.6581 18.7593 13.5361 18.614 13.341C18.2468 12.8288 17.8709 12.3247 17.4695 11.7799Z" fill="currentColor" stroke="currentColor" stroke-width="0.2"/>
<path d="M7.07394 11.5116C7.07394 10.6579 7.07394 9.90179 7.07394 9.14565C7.07394 9.03182 7.07394 8.918 7.09956 8.8123C7.15935 8.55213 7.40706 8.38952 7.66331 8.41391C7.9281 8.4383 8.1331 8.6253 8.15872 8.88548C8.16727 8.94239 8.16727 9.00743 8.16727 9.06435C8.16727 10.3652 8.16727 11.6661 8.16727 12.967C8.16727 13.2434 8.10748 13.4711 7.79998 13.5768C7.48394 13.6825 7.27894 13.5361 7.09956 13.3003C6.39061 12.3897 5.67311 11.4791 4.9129 10.5197C4.90436 10.6579 4.88728 10.7474 4.88728 10.8287C4.88728 11.5523 4.88728 12.2678 4.88728 12.9914C4.88728 13.3735 4.66519 13.6174 4.34061 13.6174C4.01603 13.6174 3.79395 13.3735 3.79395 12.9914C3.79395 11.6824 3.79395 10.3734 3.79395 9.06435C3.79395 8.77165 3.86228 8.544 4.17832 8.4383C4.48582 8.34073 4.68228 8.49521 4.85311 8.71474C5.50227 9.54404 6.15998 10.3734 6.80914 11.2027C6.88602 11.2758 6.95435 11.3571 7.07394 11.5116Z" fill="currentColor" stroke="currentColor" stroke-width="0.2" />
<path d="M10.3626 11.5279C10.3626 11.8531 10.3455 12.1295 10.3712 12.3978C10.3797 12.4629 10.5334 12.5605 10.6189 12.5605C11.3534 12.5767 12.088 12.5686 12.8311 12.5686C12.9336 12.5686 13.0447 12.5686 13.1472 12.5767C13.4291 12.6092 13.617 12.8044 13.6341 13.0564C13.6511 13.3085 13.4803 13.5361 13.1984 13.5849C13.0105 13.6174 12.8141 13.6093 12.6261 13.6093C11.7549 13.6093 10.8751 13.6093 10.0039 13.6093C9.4572 13.6093 9.26074 13.4304 9.26074 12.9182C9.26074 11.6417 9.26074 10.3571 9.26074 9.0806C9.26074 8.58464 9.4572 8.39764 9.97824 8.39764C10.9776 8.39764 11.9855 8.39764 12.9849 8.39764C13.3693 8.39764 13.5913 8.56838 13.6341 8.86108C13.6768 9.17817 13.4376 9.43022 13.0532 9.43835C12.2674 9.44648 11.473 9.44648 10.6872 9.43835C10.4395 9.43835 10.3541 9.49526 10.3541 9.73917C10.3626 10.479 10.3541 10.479 11.1484 10.4872C11.4218 10.4872 11.7036 10.479 11.977 10.4953C12.3186 10.5116 12.5322 10.7148 12.5407 10.9994C12.5493 11.3002 12.3272 11.5198 11.9684 11.5279C11.4474 11.536 10.9264 11.5279 10.3626 11.5279Z" fill="currentColor" stroke="currentColor" stroke-width="0.2"/>
<path d="M11.9854 16.9917C10.7042 16.9917 9.42295 16.9917 8.14171 16.9917C8.02213 16.9917 7.90254 16.9998 7.7915 16.9754C7.55233 16.9266 7.39859 16.7803 7.36442 16.5363C7.33879 16.2843 7.43275 16.0892 7.689 15.9997C7.82567 15.9509 7.97942 15.9428 8.12462 15.9428C10.7042 15.9428 13.2923 15.9428 15.8719 15.9428C15.9573 15.9428 16.0427 15.9428 16.1281 15.9509C16.4356 15.9835 16.6492 16.203 16.6406 16.4794C16.6406 16.7559 16.4271 16.9673 16.1111 16.9835C15.9402 16.9917 15.7694 16.9917 15.5986 16.9917C14.4027 16.9917 13.1898 16.9917 11.9854 16.9917Z" fill="currentColor" stroke="currentColor" stroke-width="0.2"/>
<path d="M22.8247 14.7964C22.8162 15.1541 22.5172 15.455 22.1927 15.4387C21.8937 15.4224 21.6631 15.1785 21.6716 14.8858C21.6887 14.5362 21.9706 14.2516 22.2781 14.2516C22.577 14.2598 22.8333 14.5118 22.8247 14.7964Z" fill="currentColor" stroke="currentColor" stroke-width="0.2" />
</svg>
