<svg width="36" height="27" viewBox="0 0 36 27" fill="none" xmlns="http://www.w3.org/2000/svg">
<g clip-path="url(#clip0_14_834)">
<path d="M12.119 15.7568C8.55262 15.7568 4.99681 15.7568 1.43048 15.7568C0.42054 15.7568 0.0102539 15.3568 0.0102539 14.3925C0.0102539 10.0429 0.0102539 5.70365 0.0102539 1.3541C0.0102539 0.430851 0.43106 0 1.37787 0C8.5421 0 15.7063 0 22.8706 0C23.8279 0 24.2487 0.410334 24.2487 1.33359C24.2487 5.69339 24.2487 10.0532 24.2487 14.413C24.2487 15.3568 23.8384 15.7568 22.8495 15.7568C19.2621 15.7568 15.6958 15.7568 12.119 15.7568Z" fill="white"/>
<path d="M26.5632 5.71392C28.8145 5.40617 30.8449 5.70366 32.5912 7.18087C33.538 7.98102 34.4638 8.79143 35.2002 9.78649C35.7262 10.4841 36.0103 11.2329 35.9998 12.1357C35.9577 15.1516 35.9892 18.1573 35.9892 21.1733C35.9892 22.0863 35.5579 22.5171 34.6216 22.5171C34.2324 22.5171 33.8326 22.5171 33.4118 22.5171C33.0541 21.0091 32.2546 19.7986 30.9501 18.9369C29.9717 18.2804 28.8776 17.9624 27.6888 17.9727C26.3107 17.9829 25.0903 18.424 24.0278 19.2755C22.9758 20.1167 22.3341 21.2143 22.029 22.5171C21.8712 22.5171 21.7239 22.5171 21.5766 22.5171C19.1359 22.5171 16.6847 22.5171 14.2441 22.5274C13.9285 22.5274 13.7812 22.4761 13.676 22.1376C13.0763 20.1269 11.7403 18.8138 9.67831 18.1983C9.58363 18.1676 9.48895 18.1368 9.40479 18.0342C9.55207 18.0342 9.70987 18.0342 9.85715 18.0342C14.2125 18.0342 18.5573 18.0342 22.9127 18.0342C24.7221 18.0342 26.1108 16.9981 26.479 15.367C26.5526 15.0285 26.5632 14.6797 26.5632 14.3309C26.5737 11.6125 26.5632 8.89401 26.5632 6.17555C26.5632 6.01141 26.5632 5.85754 26.5632 5.71392ZM28.4673 14.0334C30.3399 14.0334 32.2125 14.0334 34.0746 14.0334C34.4638 10.8534 31.2236 7.64249 28.4673 8.47342C28.4673 10.3097 28.4673 12.1562 28.4673 14.0334Z" fill="white"/>
<path d="M8.03712 27C6.10141 26.9692 4.55495 25.4202 4.59703 23.5634C4.63911 21.6862 6.22766 20.1782 8.1318 20.209C10.0465 20.2397 11.614 21.8093 11.5719 23.6558C11.5193 25.5536 9.95179 27.041 8.03712 27Z" fill="white"/>
<path d="M31.1816 23.625C31.1816 25.5023 29.6247 27.0205 27.6889 27.0103C25.7638 27 24.2173 25.4818 24.2173 23.6045C24.2173 21.7375 25.7953 20.209 27.71 20.2192C29.6457 20.2192 31.1922 21.7375 31.1816 23.625Z" fill="white"/>
<path d="M0.0102883 17.9111C2.29316 18.1368 4.54448 17.9418 6.79579 18.0957C6.51175 18.188 6.22771 18.2599 5.95418 18.3727C4.17627 19.101 3.00854 20.3833 2.49305 22.1991C2.41941 22.435 2.34576 22.5479 2.08276 22.5273C1.76716 22.5068 1.45155 22.5273 1.13595 22.5171C0.536297 22.4966 0.0313286 22.0555 0.0208084 21.481C-0.0107521 20.2705 0.0102883 19.0703 0.0102883 17.9111Z" fill="white"/>
</g>
<defs>
<clipPath id="clip0_14_834">
<rect width="36" height="27" fill="white"/>
</clipPath>
</defs>
</svg>
