<svg width="27" height="39" viewBox="0 0 27 39" fill="none" xmlns="http://www.w3.org/2000/svg">
<g clip-path="url(#clip0_14_854)">
<path d="M13.5002 0C14.6111 1.00952 15.6937 1.99048 16.7575 2.99048C16.9646 3.18095 17.1529 3.26667 17.4542 3.22857C18.8946 3.04762 20.3443 2.91429 21.8412 2.75238C21.9918 3.46667 22.1519 4.18095 22.2931 4.89524C22.4531 5.66667 22.5943 6.43809 22.7732 7.2C22.8109 7.37143 22.9521 7.5619 23.1027 7.65714C24.2701 8.35238 25.4469 9.02857 26.6236 9.71428C26.746 9.78095 26.859 9.85714 27.0002 9.94286C26.7366 10.5524 26.473 11.1524 26.2094 11.7524C25.8705 12.5238 25.5128 13.2952 25.1927 14.0857C25.1268 14.2571 25.1174 14.5048 25.1927 14.6762C25.7764 16.0476 26.3883 17.4095 27.0096 18.8095C26.8872 18.8857 26.7743 18.9619 26.6613 19.0286C25.4845 19.7143 24.3172 20.4 23.1404 21.0667C22.9238 21.1905 22.8203 21.3429 22.7732 21.5905C22.5002 22.9619 22.2178 24.3238 21.9354 25.6857C21.9165 25.781 21.8883 25.8762 21.8506 26C21.0033 25.9048 20.1655 25.819 19.337 25.7238C18.6498 25.6476 17.9626 25.5619 17.2753 25.5143C17.1435 25.5048 16.9646 25.5905 16.8611 25.6952C15.8349 26.619 14.8276 27.5429 13.8109 28.4762C13.7167 28.5619 13.6226 28.6381 13.5096 28.7429C12.86 28.1524 12.2199 27.5619 11.5797 26.9809C11.109 26.5429 10.6383 26.1048 10.1487 25.6857C10.0358 25.5905 9.83808 25.5143 9.68745 25.5333C8.28473 25.6667 6.89143 25.8286 5.49812 25.9809C5.40398 25.9905 5.30042 25.9905 5.16862 26C4.96151 25.019 4.76381 24.0381 4.5567 23.0667C4.4908 22.7524 4.38724 22.4476 4.36841 22.1333C4.34017 21.4476 3.95419 21.0762 3.37992 20.7714C2.25021 20.1714 1.15816 19.4952 0.0284572 18.8381C0.0661141 18.7238 0.103771 18.619 0.141428 18.5143C0.696867 17.2571 1.25231 15.9905 1.82657 14.7333C1.93954 14.4762 1.93013 14.2762 1.81716 14.019C1.26172 12.7905 0.715695 11.5429 0.169671 10.3048C0.122599 10.1905 0.0755283 10.0762 0.019043 9.93333C0.508583 9.64762 0.979294 9.37143 1.45942 9.08571C2.26904 8.60952 3.09749 8.15238 3.8977 7.65714C4.04833 7.5619 4.19896 7.34286 4.24603 7.17143C4.56611 5.71429 4.86737 4.24762 5.17804 2.75238C5.99707 2.83809 6.8067 2.92381 7.61632 3.00952C8.34122 3.08571 9.06611 3.18095 9.79101 3.2381C9.91339 3.24762 10.0734 3.15238 10.177 3.06667C11.1749 2.1619 12.1728 1.24762 13.1707 0.333333C13.2366 0.238095 13.3496 0.133333 13.5002 0ZM13.4908 5.40952C8.62364 5.41905 4.66025 9.4381 4.65084 14.3619C4.64143 19.2952 8.65189 23.3333 13.519 23.3143C18.3956 23.2952 22.3684 19.2476 22.3402 14.3524C22.3119 9.40952 18.3485 5.40952 13.4908 5.40952Z" fill="white"/>
<path d="M12.8884 31.2667C11.6928 33.8381 10.5066 36.3905 9.29219 39C9.09449 38.7619 8.93445 38.581 8.77441 38.3905C7.96478 37.4381 7.15516 36.4762 6.36437 35.5143C6.19491 35.3143 6.02545 35.2191 5.76186 35.2191C4.43445 35.2191 3.09763 35.2 1.77022 35.181C1.6196 35.181 1.46897 35.181 1.25244 35.181C1.30893 35.0191 1.34658 34.9048 1.39365 34.8C2.34449 32.7619 3.29533 30.7143 4.24616 28.6762C4.37796 28.381 4.54742 28.3048 5.04637 28.3334C6.09135 28.4 7.13633 28.2762 8.14365 28.0095C8.88738 27.8095 9.27336 27.8191 9.74407 28.4095C10.243 29.0286 10.8079 29.5905 11.448 30.0476C12.0788 30.4953 12.4365 30.8476 12.8884 31.2667Z" fill="white"/>
<path d="M17.699 38.9905C16.4846 36.3905 15.3078 33.8477 14.084 31.2191C14.1593 31.1619 14.2629 31.1143 14.3476 31.0381C15.4302 30.0476 16.5034 29.0572 17.5955 28.0762C17.7179 27.9619 17.925 27.8762 18.085 27.8857C19.5348 28.0191 20.9752 28.181 22.425 28.3429C22.5191 28.3524 22.6415 28.4381 22.6792 28.5143C23.6959 30.6953 24.7032 32.8762 25.7106 35.0572C25.7106 35.0667 25.7106 35.0857 25.7106 35.1429C25.5788 35.1524 25.4564 35.1619 25.3246 35.1715C24.0066 35.1905 22.6886 35.2096 21.3706 35.2096C21.0317 35.2096 20.7963 35.3048 20.5704 35.581C19.7231 36.6286 18.8382 37.6572 17.9721 38.6953C17.8967 38.781 17.812 38.8667 17.699 38.9905Z" fill="white"/>
<path d="M20.0807 14.3809C20.0619 18.0857 17.087 21.0571 13.4437 21.0286C9.82865 21 6.89142 17.9905 6.91025 14.3524C6.93849 10.6666 9.89455 7.68569 13.5096 7.70474C17.1435 7.71427 20.109 10.7333 20.0807 14.3809Z" fill="white"/>
</g>
<defs>
<clipPath id="clip0_14_854">
<rect width="27" height="39" fill="white"/>
</clipPath>
</defs>
</svg>
