<svg width="30" height="35" viewBox="0 0 30 35" fill="none" xmlns="http://www.w3.org/2000/svg">
<g clip-path="url(#clip0_14_841)">
<path d="M13.6851 35.0001C13.1013 34.9145 12.5089 34.846 11.9337 34.7347C7.95858 33.9301 4.82487 31.8587 2.52395 28.529C1.22754 26.6459 0.446257 24.566 0.137179 22.3062C-0.790055 15.4928 3.10776 8.93621 9.57265 6.60801C13.7538 5.10153 17.8405 5.47815 21.7555 7.57524C21.9272 7.6694 22.0903 7.76355 22.2363 7.84059C22.6827 7.39549 23.1034 6.97607 23.5413 6.53954C23.1893 6.19716 22.8029 5.82909 22.4509 5.49527C23.1721 4.75915 23.8418 4.08295 24.4857 3.44098C25.9109 4.86187 27.3618 6.30843 28.7956 7.73787C28.1517 8.37984 27.482 9.04749 26.7866 9.74081C26.4432 9.37275 26.074 8.98757 25.7134 8.61095C25.3528 8.98757 25.0266 9.32139 24.5973 9.75793C24.666 9.79217 24.8205 9.84353 24.9235 9.94624C26.9497 11.8978 28.2805 14.2517 28.9072 16.9822C29.5082 19.5843 29.3966 22.1693 28.5552 24.7029C27.5593 27.6816 25.8765 30.1981 23.3438 32.1069C21.1287 33.776 18.6218 34.7005 15.8572 34.9401C15.7456 34.9487 15.6426 34.9829 15.531 35.0086C14.9214 35.0001 14.3033 35.0001 13.6851 35.0001ZM24.8892 20.2862C21.4893 20.2862 18.0895 20.2862 14.6553 20.2862C14.6553 18.5486 14.6553 16.8538 14.6553 15.159C14.6553 13.4642 14.6553 11.7694 14.6553 10.0746C9.26357 10.0233 4.45569 14.3116 4.41276 20.2348C4.36983 25.9355 9.05752 30.5748 14.7411 30.4977C20.7166 30.4207 24.9579 25.5845 24.8892 20.2862Z" fill="white"/>
<path d="M16.1322 4.29691C15.1448 4.29691 14.1918 4.29691 13.1959 4.29691C13.1959 3.86037 13.1959 3.40672 13.1959 2.9017C12.2086 2.9017 11.2556 2.9017 10.2769 2.9017C10.2769 1.91735 10.2769 0.967244 10.2769 -0.00854492C13.1873 -0.00854492 16.0892 -0.00854492 19.0255 -0.00854492C19.0255 0.950125 19.0255 1.90023 19.0255 2.89314C18.0725 2.89314 17.1195 2.89314 16.1322 2.89314C16.1322 3.40671 16.1322 3.86893 16.1322 4.29691Z" fill="white"/>
</g>
<defs>
<clipPath id="clip0_14_841">
<rect width="29.3023" height="35" fill="white"/>
</clipPath>
</defs>
</svg>
