<svg width="34" height="29" viewBox="0 0 34 29" fill="none" xmlns="http://www.w3.org/2000/svg">
<g clip-path="url(#clip0_25_697)">
<path d="M3.72665 29.0001C3.5142 28.9457 3.30176 28.8914 3.08931 28.828C1.09764 28.2393 -0.24784 26.1924 0.0265676 24.1637C0.327531 21.9267 2.07135 20.3055 4.22235 20.3055C12.7378 20.2964 21.2533 20.2964 29.7688 20.3055C31.8402 20.3055 33.5751 21.8361 33.938 23.9192C33.9469 23.9826 33.9823 24.046 34 24.1094C34 24.4716 34 24.8339 34 25.1962C33.9823 25.2596 33.9469 25.323 33.938 25.3864C33.584 27.1525 32.5572 28.3027 30.8842 28.8461C30.6894 28.9095 30.4858 28.9548 30.2822 29.0001C21.4304 29.0001 12.5785 29.0001 3.72665 29.0001ZM14.163 24.6528C14.163 23.8467 13.5522 23.2127 12.7644 23.2037C11.9766 23.2037 11.3569 23.8286 11.3481 24.6347C11.3481 25.4407 11.9589 26.0838 12.7467 26.0838C13.5434 26.0928 14.163 25.4588 14.163 24.6528ZM22.6608 24.6618C22.6696 23.8558 22.05 23.2127 21.2622 23.2127C20.4744 23.2037 19.8459 23.8377 19.8459 24.6437C19.837 25.4498 20.4567 26.0928 21.2445 26.0928C22.0323 26.0928 22.6608 25.4679 22.6608 24.6618ZM5.67406 26.0928C6.46187 26.0928 7.09035 25.4498 7.09035 24.6528C7.09035 23.8558 6.45302 23.2127 5.67406 23.2127C4.88624 23.2127 4.25776 23.8558 4.25776 24.6528C4.25776 25.4498 4.89509 26.0928 5.67406 26.0928ZM28.3437 26.0928C29.1226 26.0928 29.7511 25.4407 29.7511 24.6437C29.7423 23.8467 29.1049 23.2037 28.326 23.2127C27.547 23.2218 26.9097 23.8739 26.9185 24.6618C26.9274 25.4588 27.5647 26.0928 28.3437 26.0928Z" fill="white"/>
<path d="M25.5111 6.43039C25.4934 7.15494 25.2632 7.64401 24.8029 7.99723C24.4843 8.25082 24.1479 8.46818 23.8469 8.73083C23.7407 8.8214 23.6699 8.99348 23.6433 9.13839C23.5106 9.77237 23.7584 10.2071 24.3161 10.4969C24.502 10.5965 24.6613 10.7414 24.8206 10.8773C25.5199 11.4569 25.697 12.3536 25.2632 13.1687C24.9269 13.8117 24.5728 14.4548 24.2099 15.0887C23.7407 15.9129 22.8555 16.1937 22.0057 15.8133C21.6428 15.6503 21.2887 15.451 20.9258 15.3061C20.8107 15.2608 20.6426 15.288 20.5098 15.3333C19.9875 15.5053 19.8016 15.8948 19.8282 16.4473C19.8459 16.7371 19.7928 17.036 19.7397 17.3258C19.5892 18.2315 18.9519 18.8202 18.0578 18.8473C17.3497 18.8654 16.6415 18.8745 15.9334 18.8473C14.9685 18.8111 14.3135 18.1409 14.2161 17.1175C14.1807 16.7461 14.1453 16.3748 14.1276 16.0035C14.1187 15.7771 14.0037 15.6684 13.8355 15.5235C13.4283 15.1884 13.0565 15.2246 12.6493 15.4872C12.428 15.6321 12.1713 15.7318 11.9323 15.8314C11.1534 16.1574 10.277 15.8948 9.84329 15.1612C9.42726 14.4638 9.03777 13.7574 8.67485 13.0328C8.30307 12.2811 8.52437 11.4117 9.1794 10.8682C9.49807 10.6056 9.84329 10.3792 10.162 10.1165C10.2682 10.026 10.3301 9.85388 10.3656 9.70897C10.4983 9.07499 10.2505 8.64026 9.69281 8.35044C9.49807 8.25082 9.32989 8.09685 9.1617 7.95194C8.49781 7.38136 8.32077 6.50285 8.72796 5.7149C9.07318 5.05375 9.42726 4.40166 9.79903 3.75862C10.2682 2.94351 11.1622 2.65369 12.012 3.03408C12.3749 3.1971 12.729 3.38729 13.1008 3.54126C13.2159 3.58654 13.384 3.55937 13.5168 3.51409C14.0391 3.34201 14.225 2.95257 14.1984 2.4001C14.1807 2.11028 14.2338 1.8114 14.2869 1.52158C14.4374 0.615901 15.0747 0.027206 15.9688 3.54573e-05C16.6769 -0.0180782 17.3851 -0.0180782 18.0932 3.54573e-05C19.0581 0.027206 19.7043 0.706469 19.8105 1.72989C19.8459 2.10122 19.8813 2.47255 19.899 2.84388C19.9079 3.0703 20.0229 3.17899 20.1911 3.3239C20.5983 3.66806 20.9701 3.62277 21.3773 3.36012C21.5986 3.21521 21.8553 3.11559 22.0943 3.01596C22.8821 2.68086 23.7407 2.94351 24.1833 3.67711C24.5905 4.36543 24.9711 5.07187 25.334 5.7783C25.4314 6.02283 25.4757 6.3036 25.5111 6.43039ZM16.9956 13.0509C18.9607 13.06 20.5363 11.4479 20.5363 9.43726C20.5363 7.4357 18.9873 5.83264 17.031 5.81453C15.0659 5.79641 13.4814 7.39947 13.4726 9.41009C13.4637 11.4207 15.0305 13.0419 16.9956 13.0509Z" fill="white"/>
</g>
<defs>
<clipPath id="clip0_25_697">
<rect width="34" height="29" fill="white"/>
</clipPath>
</defs>
</svg>
