<svg width="26" height="27" viewBox="0 0 26 27" fill="none" xmlns="http://www.w3.org/2000/svg">
<g clip-path="url(#clip0_25_709)">
<path d="M22.4927 27C16.1619 27 9.83119 27 3.50046 27C2.38327 26.6273 2.15306 25.882 2.15983 24.8836C2.18015 19.568 2.1666 14.2523 2.1666 8.93672C2.1666 8.83828 2.1666 8.73281 2.1666 8.59219C2.05827 8.65547 1.99056 8.69766 1.92285 8.73984C1.564 8.98594 1.20515 9.23906 0.839521 9.47109C0.568688 9.64687 0.243688 9.5625 0.0811876 9.29531C-0.0745416 9.03516 -0.00683328 8.72578 0.250458 8.52891C0.311396 8.47969 0.379104 8.4375 0.440042 8.39531C2.06504 7.29844 3.68327 6.20156 5.30827 5.10469C7.82025 3.40312 10.3322 1.70156 12.8442 0C12.9458 0 13.0473 0 13.1489 0C13.2505 0.0632812 13.352 0.126563 13.4468 0.189844C17.4958 2.93203 21.538 5.66719 25.5801 8.41641C25.7426 8.52891 25.8578 8.71172 25.9932 8.85938C25.9932 8.96484 25.9932 9.07031 25.9932 9.17578C25.6614 9.63281 25.4854 9.66797 24.9979 9.35859C24.7609 9.21094 24.5307 9.04219 24.2937 8.8875C24.1515 8.78906 24.0025 8.69063 23.8197 8.56406C23.8197 8.72578 23.8197 8.83125 23.8197 8.92969C23.8197 14.2945 23.8197 19.6664 23.8197 25.0312C23.8197 25.1437 23.8197 25.2563 23.813 25.3758C23.7859 26.0859 23.3593 26.6695 22.7161 26.9016C22.6484 26.9367 22.5739 26.9719 22.4927 27ZM18.938 15.7711C14.9635 15.7711 11.0161 15.7711 7.06869 15.7711C7.06869 19.1461 7.06869 22.5 7.06869 25.868C7.42754 25.868 7.75931 25.868 8.12494 25.868C8.12494 24.743 8.12494 23.632 8.12494 22.5281C9.58067 22.5281 11.0025 22.5281 12.4583 22.5281C12.4583 23.6461 12.4583 24.75 12.4583 25.8609C12.8307 25.8609 13.1828 25.8609 13.5551 25.8609C13.5551 24.7359 13.5551 23.632 13.5551 22.5281C15.0041 22.5281 16.4328 22.5281 17.8749 22.5281C17.8749 23.6531 17.8749 24.757 17.8749 25.868C18.2406 25.868 18.5791 25.868 18.938 25.868C18.938 22.493 18.938 19.1391 18.938 15.7711ZM12.9999 9.00703C13.6703 9.00703 14.3338 9.00703 15.0041 9.00703C15.5796 9.00703 16.1551 9.01406 16.7307 9.00703C17.1234 9 17.3536 8.74687 17.3197 8.38125C17.2926 8.05078 17.0557 7.875 16.6359 7.875C14.2051 7.875 11.7812 7.875 9.35046 7.875C9.26921 7.875 9.18119 7.875 9.09994 7.89609C8.81556 7.95938 8.65306 8.19141 8.67338 8.48672C8.69369 8.81016 8.93067 9.00703 9.31661 9.00703C10.5489 9.00703 11.7744 9.00703 12.9999 9.00703ZM12.9999 10.6945C12.1265 10.6945 11.2598 10.6945 10.3864 10.6945C9.98692 10.6945 9.59421 10.6875 9.19473 10.7016C8.84265 10.7156 8.62598 11.0109 8.68692 11.3695C8.73431 11.6508 8.96452 11.8195 9.30984 11.8195C11.7744 11.8195 14.2322 11.8195 16.6968 11.8195C16.7442 11.8195 16.7984 11.8195 16.8458 11.8125C17.1437 11.7703 17.3468 11.5172 17.3265 11.2078C17.3062 10.8844 17.0828 10.7016 16.7036 10.6945C15.4713 10.6875 14.2322 10.6945 12.9999 10.6945Z" fill="white"/>
<path d="M15.688 21.3609C13.887 21.3609 12.1063 21.3609 10.3052 21.3609C10.2985 21.2695 10.2917 21.1852 10.2917 21.1078C10.2917 19.9336 10.2917 18.7523 10.2917 17.5781C10.2917 17.0648 10.4745 16.875 10.962 16.875C12.3162 16.875 13.6703 16.875 15.0245 16.875C15.5188 16.875 15.7016 17.0648 15.7016 17.5711C15.7016 18.7453 15.7016 19.9266 15.7016 21.1008C15.7016 21.1852 15.6948 21.2625 15.688 21.3609Z" fill="white"/>
</g>
<defs>
<clipPath id="clip0_25_709">
<rect width="26" height="27" fill="white"/>
</clipPath>
</defs>
</svg>
