<svg width="29" height="22" viewBox="0 0 29 22" fill="none" xmlns="http://www.w3.org/2000/svg">
<g clip-path="url(#clip0_25_702)">
<path d="M9.76252 12.8389C6.88964 12.8389 4.02524 12.8389 1.15236 12.8389C0.338798 12.8389 0.00828934 12.5129 0.00828934 11.7272C0.00828934 8.18313 0.00828934 4.64742 0.00828934 1.10334C0.00828934 0.351064 0.347272 0 1.10998 0C6.88117 0 12.6524 0 18.4235 0C19.1947 0 19.5337 0.334347 19.5337 1.08663C19.5337 4.63906 19.5337 8.19149 19.5337 11.7439C19.5337 12.5129 19.2032 12.8389 18.4066 12.8389C15.5168 12.8389 12.6439 12.8389 9.76252 12.8389Z" fill="white"/>
<path d="M21.3981 4.65572C23.2117 4.40496 24.8473 4.64736 26.254 5.851C27.0168 6.50298 27.7625 7.16331 28.3557 7.9741C28.7795 8.54249 29.0083 9.15268 28.9998 9.88824C28.9659 12.3457 28.9913 14.7948 28.9913 17.2522C28.9913 17.9961 28.6439 18.3472 27.8896 18.3472C27.5761 18.3472 27.254 18.3472 26.9151 18.3472C26.6269 17.1185 25.9829 16.1322 24.932 15.43C24.1439 14.8951 23.2625 14.636 22.3049 14.6443C21.1947 14.6527 20.2117 15.0121 19.3557 15.7059C18.5083 16.3913 17.9913 17.2857 17.7456 18.3472C17.6185 18.3472 17.4998 18.3472 17.3812 18.3472C15.4151 18.3472 13.4405 18.3472 11.4744 18.3556C11.2202 18.3556 11.1015 18.3138 11.0168 18.0379C10.5337 16.3996 9.45744 15.3297 7.79643 14.8282C7.72016 14.8031 7.64388 14.7781 7.57609 14.6945C7.69473 14.6945 7.82185 14.6945 7.94049 14.6945C11.449 14.6945 14.949 14.6945 18.4574 14.6945C19.9151 14.6945 21.0337 13.8502 21.3303 12.5212C21.3896 12.2454 21.3981 11.9612 21.3981 11.677C21.4066 9.46195 21.3981 7.2469 21.3981 5.03186C21.3981 4.89812 21.3981 4.77274 21.3981 4.65572ZM22.932 11.4346C24.4405 11.4346 25.949 11.4346 27.449 11.4346C27.7625 8.84341 25.1524 6.22714 22.932 6.9042C22.932 8.4004 22.932 9.90496 22.932 11.4346Z" fill="white"/>
<path d="M6.47442 22.0001C4.9151 21.9751 3.66933 20.7129 3.70323 19.2C3.73713 17.6703 5.01679 16.4416 6.55069 16.4667C8.09306 16.4918 9.35577 17.7706 9.32188 19.2752C9.2795 20.8216 8.01679 22.0336 6.47442 22.0001Z" fill="white"/>
<path d="M25.1185 19.25C25.1185 20.7796 23.8643 22.0167 22.305 22.0083C20.7541 22 19.5084 20.7629 19.5084 19.2333C19.5084 17.712 20.7796 16.4665 22.3219 16.4749C23.8813 16.4749 25.127 17.712 25.1185 19.25Z" fill="white"/>
<path d="M0.00828863 14.5942C1.84727 14.7781 3.66083 14.6193 5.47439 14.7447C5.24558 14.8199 5.01676 14.8784 4.79642 14.9704C3.36422 15.5638 2.42354 16.6087 2.00829 18.0882C1.94897 18.2804 1.88964 18.3724 1.67778 18.3556C1.42354 18.3389 1.16931 18.3556 0.915069 18.3473C0.432018 18.3306 0.0252378 17.9711 0.0167632 17.5031C-0.00866053 16.5167 0.00828863 15.5388 0.00828863 14.5942Z" fill="white"/>
</g>
<defs>
<clipPath id="clip0_25_702">
<rect width="29" height="22" fill="white"/>
</clipPath>
</defs>
</svg>
