<svg width="27" height="32" viewBox="0 0 27 32" fill="none" xmlns="http://www.w3.org/2000/svg">
<g clip-path="url(#clip0_25_691)">
<path d="M12.5749 32.0001C11.8693 31.8961 11.1559 31.8401 10.4582 31.6881C5.95819 30.7124 2.46951 28.249 0.0470397 24.242C-0.0235178 24.13 -0.0235178 23.9061 0.0470397 23.7941C2.08537 20.371 4.97823 18.0516 8.70994 16.8199C8.83537 16.7799 9.0392 16.8359 9.14112 16.9318C10.4112 18.1315 11.8223 19.1393 13.257 20.123C13.4373 20.243 13.5627 20.251 13.743 20.131C15.1699 19.1953 16.5418 18.1875 17.7727 16.9878C17.953 16.8119 18.1176 16.7479 18.3685 16.8359C22.0139 18.0835 24.8519 20.355 26.8903 23.6821C27.0392 23.9301 27.0392 24.114 26.8903 24.362C24.6951 27.9371 21.5984 30.2885 17.6315 31.4162C16.7065 31.6801 15.7265 31.7681 14.7779 31.9361C14.6603 31.9601 14.5349 31.9761 14.4173 32.0001C13.7979 32.0001 13.1864 32.0001 12.5749 32.0001ZM16.5732 24.0021C16.3301 24.0021 16.0793 24.0101 15.8362 24.0021C15.5697 23.9941 15.4364 24.098 15.4443 24.386C15.4521 24.8019 15.4521 25.2178 15.4443 25.6337C15.4364 25.8976 15.554 26.0096 15.8127 26.0096C16.2909 26.0016 16.7692 26.0016 17.2552 26.0096C17.608 26.0096 17.6551 26.0656 17.6551 26.4335C17.6551 26.9213 17.6629 27.4092 17.6551 27.9051C17.6551 28.153 17.757 28.265 18 28.265C18.4312 28.257 18.8545 28.257 19.2857 28.265C19.5209 28.273 19.615 28.177 19.615 27.9371C19.6072 27.4492 19.615 26.9613 19.615 26.4655C19.615 26.0895 19.6934 26.0176 20.0697 26.0096C20.5166 26.0096 20.9713 26.0096 21.4181 26.0096C21.7631 26.0096 21.818 25.9456 21.8258 25.5857C21.8258 25.1938 21.818 24.7939 21.8258 24.402C21.8336 24.122 21.7082 24.0101 21.4416 24.0101C20.9634 24.0181 20.4852 24.0021 19.9991 24.0101C19.7247 24.0181 19.6072 23.8981 19.615 23.6182C19.6228 23.1223 19.615 22.6184 19.6228 22.1225C19.6228 21.8746 19.5444 21.7546 19.2857 21.7546C18.8702 21.7626 18.4469 21.7626 18.0314 21.7546C17.757 21.7466 17.6551 21.8826 17.6551 22.1625C17.6629 22.6584 17.6551 23.1623 17.6629 23.6582C17.6629 23.9141 17.561 24.0181 17.3101 24.0101C17.0671 23.9941 16.824 24.0021 16.5732 24.0021Z" fill="white"/>
<path d="M7.31446 7.85411C7.36934 6.94234 7.34582 6.01458 7.48693 5.1188C8.02003 1.80763 11.2343 -0.479798 14.4721 0.0880594C17.4355 0.607929 19.5601 3.1193 19.6071 6.19053C19.6228 7.31825 19.6385 8.43797 19.6071 9.56569C19.5287 11.9891 18.4547 13.8526 16.3615 14.9963C14.2526 16.148 12.1202 16.0281 10.1211 14.7004C8.40418 13.5647 7.50261 11.8851 7.37718 9.79763C7.33798 9.15779 7.36934 8.50995 7.36934 7.86211C7.35366 7.85412 7.33798 7.85411 7.31446 7.85411Z" fill="white"/>
</g>
<defs>
<clipPath id="clip0_25_691">
<rect width="27" height="32" fill="white"/>
</clipPath>
</defs>
</svg>
