<svg width="324" height="263" viewBox="0 0 324 263" fill="none" xmlns="http://www.w3.org/2000/svg">
<g clip-path="url(#clip0_14_950)">
<path d="M65.97 82.724C65.9242 86.8556 65.97 90.9872 65.97 95.1188C65.97 111.255 65.97 127.414 65.97 143.551C65.97 144.997 66.0157 144.974 67.434 145.065C69.5156 145.18 71.5743 145.387 73.6559 145.593C76.1493 145.823 78.6198 146.19 81.1131 146.305C87.6096 146.603 94.129 146.902 100.625 146.948C104.812 146.994 108.998 146.649 113.161 146.374C116.478 146.167 119.817 145.915 123.111 145.456C125.971 145.065 128.83 144.446 131.667 143.78C135.304 142.954 138.964 142.219 142.486 141.049C146.673 139.648 150.767 137.95 154.77 136.114C160.192 133.635 165.178 130.352 169.891 126.657C174.214 123.283 178.171 119.564 181.557 115.295C184.622 111.416 187.413 107.307 190.02 103.107C191.942 100.031 193.452 96.6797 195.03 93.3973C196.014 91.3545 196.86 89.2657 197.615 87.1311C198.69 84.0783 199.674 80.9796 200.634 77.8579C201.275 75.7921 201.824 73.6804 202.373 71.5687C202.876 69.5488 203.311 67.5289 203.768 65.509C204.18 63.6268 204.638 61.7446 204.935 59.8624C205.301 57.6589 205.507 55.4324 205.804 53.2059C206.216 50.1531 206.719 47.1233 207.039 44.0705C207.382 40.6963 207.657 37.3222 207.84 33.9251C208.046 29.7935 208.252 25.6848 208.252 21.5532C208.252 14.8279 208.023 8.10252 207.977 1.37718C207.977 0.229507 207.588 -0.0459333 206.513 -2.64575e-05C201.641 0.160647 196.769 0.206554 191.896 0.344274C186.864 0.481995 181.854 0.642669 176.822 0.803342C176.204 0.826296 175.609 0.941063 174.992 0.98697C172.201 1.2165 169.387 1.44604 166.597 1.67557C164.789 1.83625 162.982 1.97397 161.175 2.15759C159.894 2.29531 158.636 2.47894 157.355 2.66257C155.914 2.8921 154.473 3.1905 153.032 3.42003C150.95 3.74138 148.846 3.97091 146.764 4.36112C144.499 4.77428 142.258 5.30221 140.016 5.83014C137.523 6.42692 135.006 7.00076 132.582 7.80413C129.311 8.88294 126.108 10.1454 122.906 11.4078C121.396 12.0046 119.955 12.8309 118.491 13.5654C118.536 13.6802 118.559 13.772 118.605 13.8868C118.925 13.9097 119.246 13.9556 119.589 13.9556C127.16 13.9097 134.755 13.8179 142.326 13.8179C159.299 13.795 176.25 13.8179 193.223 13.795C194.092 13.795 194.435 14.0474 194.412 14.9656C194.252 22.2189 194.138 29.4951 194.001 36.7484C194.001 37.0238 193.932 37.2763 193.909 37.5517C193.658 39.7323 193.383 41.9129 193.154 44.1164C192.971 45.9986 192.88 47.9037 192.674 49.7859C192.56 50.9106 192.331 52.0124 192.148 53.1371C191.782 55.2258 191.416 57.2917 191.027 59.3804C190.707 61.1708 190.409 62.9611 189.998 64.7285C189.38 67.2534 188.717 69.7553 187.985 72.2343C187.092 75.2871 186.292 78.3858 185.148 81.3468C183.798 84.8816 182.266 88.3706 180.573 91.7447C178.995 94.8893 177.188 97.9421 175.243 100.88C173.642 103.267 171.789 105.517 169.891 107.651C168.061 109.717 166.002 111.622 164.035 113.573C163.897 113.711 163.577 113.711 163.28 113.78C163.257 113.344 163.234 113.045 163.234 112.747C163.257 89.2198 163.28 65.6926 163.325 42.1883C163.325 41.4079 163.12 41.2013 162.365 41.2013C152.712 41.2931 143.081 41.2702 133.428 41.4538L123.866 41.5915C114.899 41.5686 105.955 41.6145 96.9883 41.6145C96.0276 41.6145 95.6158 41.844 95.6158 42.8769C95.6616 52.5862 95.6844 62.3184 95.7302 72.0277C95.7302 73.6804 95.7531 73.6804 94.129 73.6804C85.2077 73.6804 76.2865 73.6574 67.3653 73.6574C66.9307 73.6574 66.4732 73.6574 65.9242 73.6574C65.9242 75.2642 65.9014 76.7332 65.9242 78.2022L65.97 82.724ZM149.646 119.105C149.646 120.138 149.623 121.194 149.326 122.181C149.12 122.869 148.594 123.719 147.976 123.994C145.071 125.28 142.143 126.519 139.124 127.529C136.196 128.516 133.199 129.319 130.203 130.031C127.481 130.651 124.713 131.11 121.945 131.5C118.674 131.959 115.403 132.372 112.109 132.648C108.883 132.923 105.635 133.153 102.41 133.107C96.2792 133.015 90.1487 132.739 84.0411 132.51C82.6686 132.464 81.2961 132.395 79.9237 132.349C78.4597 132.28 78.2538 132.097 78.2538 130.674C78.2538 116.052 78.2538 101.454 78.208 86.8327C78.208 85.8686 78.5512 85.5702 79.4662 85.5932C84.43 85.685 89.371 85.7539 94.3348 85.7768C95.4557 85.7768 95.7531 86.2129 95.7531 87.2917C95.7302 96.4272 95.7302 105.563 95.7302 114.721C95.7302 116.534 95.7302 116.534 97.4687 116.534C103.37 116.534 109.295 116.626 115.197 116.488C118.834 116.397 122.471 116.213 125.971 114.996C129.86 113.665 132.65 111.026 134.915 107.743C136.653 105.195 137.797 102.326 138.209 99.3193C139.101 92.8235 138.186 86.672 134.16 81.2091C132.078 78.3858 129.494 76.2741 126.222 75.1264C123.226 74.0706 120.069 73.7492 116.912 73.7263C114.282 73.7033 111.651 73.7033 109.021 73.7492C108.151 73.7722 107.808 73.4967 107.808 72.5786C107.831 67.3452 107.831 62.0889 107.808 56.8555C107.808 56.0751 108.083 55.7767 108.86 55.7538C121.922 55.639 135.006 55.5013 148.068 55.3406C149.074 55.3177 149.372 55.7079 149.372 56.6949C149.349 67.1846 149.349 77.6513 149.349 88.141C149.44 88.141 149.532 88.141 149.623 88.141C149.646 98.4471 149.669 108.776 149.646 119.105ZM111.194 95.2107C111.194 93.1449 111.239 91.079 111.194 89.0132C111.171 88.0492 111.468 87.5672 112.497 87.659C114.876 87.8426 117.278 87.7738 119.612 88.1869C122.242 88.6689 124.278 90.8725 124.758 93.7875C125.17 96.3354 124.575 98.6996 122.654 100.582C121.35 101.867 119.703 102.464 117.942 102.579C116.043 102.693 114.144 102.579 112.223 102.602C111.422 102.625 111.171 102.257 111.171 101.5C111.216 99.4111 111.194 97.3224 111.194 95.2107Z" fill="#59A926"/>
<path d="M41.7696 152.663C44.5146 152.663 47.2596 152.686 50.0045 152.64C50.8509 152.617 51.1483 152.847 51.1025 153.742C50.9195 157.736 48.7922 160.49 45.5211 162.441C43.9427 163.382 42.1813 163.795 40.2827 163.681C38.5671 163.589 36.8515 163.635 35.1359 163.681C30.0576 163.795 25.8258 165.632 22.5318 169.626C20.2901 172.357 18.9862 175.387 18.7803 178.922C18.7574 179.358 18.5516 179.794 18.4601 180.253C18.2313 181.355 18.4601 181.607 19.5809 181.607C24.2703 181.607 28.9597 181.561 33.649 181.607C38.8187 181.676 43.8283 182.502 48.4033 185.096C51.9489 187.093 54.9913 189.664 57.4618 192.946C59.6577 195.838 61.3276 199.006 62.1282 202.472C62.906 205.846 63.3406 209.312 62.7687 212.893C62.2197 216.313 61.4191 219.549 59.8179 222.579C57.965 226.091 55.403 229.029 52.3149 231.508C50.0503 233.321 47.6484 234.882 44.8806 235.8C43.3937 236.305 41.884 236.81 40.3285 236.948C37.2404 237.223 34.0836 237.636 31.0413 237.315C27.3127 236.902 23.767 235.571 20.5188 233.528C17.5908 231.714 15.1661 229.35 12.9701 226.779C10.8656 224.301 9.35587 221.385 8.34938 218.241C7.32001 215.004 7.04551 211.722 7.06838 208.371C7.11413 198.616 7.02263 188.86 7.06838 179.105C7.09126 174.744 8.30363 170.658 10.4996 166.894C13.0845 162.464 16.653 158.998 21.0221 156.358C23.7442 154.729 26.695 153.558 29.8289 153.214C33.7862 152.755 37.7894 152.686 41.7696 152.456C41.7696 152.525 41.7696 152.594 41.7696 152.663ZM18.8947 202.931C18.8947 202.931 18.9176 202.931 18.8947 202.931C18.9176 205.731 18.8718 208.509 18.9404 211.309C18.9633 212.388 19.1234 213.535 19.4894 214.545C21.6397 220.444 25.3912 224.691 31.7504 226.068C34.5182 226.665 37.2632 226.527 39.9625 225.701C43.3251 224.668 45.8871 222.51 47.9916 219.779C51.1025 215.716 51.743 211.056 50.9424 206.144C50.5307 203.574 49.4098 201.347 47.8086 199.281C45.1093 195.769 41.6552 193.382 37.2175 193.153C31.5674 192.854 25.8715 193.015 20.1986 192.923C19.2378 192.9 18.8261 193.176 18.8489 194.232C18.9404 197.124 18.8947 200.039 18.8947 202.931Z" fill="#59A926"/>
<path d="M217.883 237.361C215.55 237.682 213.674 236.856 211.867 235.754C209.03 234.01 207.452 231.347 206.56 228.225C206.468 227.904 206.491 227.537 206.491 227.215C206.491 218.723 206.606 210.23 206.446 201.737C206.354 197.17 203.998 194.277 199.789 192.694C198.714 192.28 197.479 192.258 196.312 192.235C192.034 192.189 187.78 192.212 183.502 192.235C179.499 192.258 176.479 194.094 174.649 197.606C173.94 198.96 173.689 200.658 173.666 202.196C173.574 209.84 173.597 217.506 173.643 225.15C173.643 227.766 173.346 230.314 171.744 232.472C169.594 235.364 166.918 237.361 163.143 237.476C162.388 237.499 162.137 237.269 162.137 236.512C162.183 234.675 162.16 232.839 162.137 231.003C162.137 219.87 162.022 208.738 162.205 197.606C162.228 195.563 163.189 193.451 164.081 191.546C166.231 187.047 169.914 184.132 174.535 182.525C176.228 181.951 178.081 181.676 179.865 181.63C186.453 181.515 193.064 181.469 199.652 181.584C205.004 181.699 209.785 183.535 213.4 187.598C214.772 189.136 215.664 191.156 216.602 193.038C217.7 195.218 217.883 197.606 217.883 200.016C217.837 211.952 217.86 223.887 217.86 235.823C217.883 236.351 217.883 236.833 217.883 237.361Z" fill="#EB870E"/>
<path d="M270.746 215.257C270.746 208.256 270.746 201.255 270.746 194.255C270.746 192.809 270.815 192.74 272.233 192.854C276.282 193.153 279.439 194.966 281.131 198.731C281.772 200.177 281.932 201.875 282.069 203.482C282.229 205.341 282.138 207.223 282.115 209.105C282.115 209.84 282.412 210.115 283.144 210.092C286.53 210.07 289.938 210.253 293.324 210.024C296.526 209.817 299.088 208.233 301.055 205.617C303.183 202.816 303.457 199.626 303.434 196.32C303.411 193.268 303.434 193.268 306.431 193.268C308.787 193.268 311.166 193.291 313.522 193.268C314.414 193.245 314.849 193.497 314.803 194.507C314.666 197.055 314.78 199.649 314.46 202.174C314.048 205.456 312.859 208.532 310.869 211.217C309.954 212.457 308.879 213.604 307.803 214.706C307.163 215.372 307.163 215.831 307.826 216.405C309.633 217.965 311.075 219.848 312.081 221.982C312.905 223.704 313.499 225.563 314.094 227.399C315.055 230.36 314.735 233.436 314.826 236.466C314.849 237.2 314.62 237.499 313.865 237.499C310.709 237.476 307.529 237.476 304.372 237.499C303.594 237.499 303.434 237.2 303.434 236.466C303.411 234.446 303.434 232.403 303.183 230.406C302.84 227.835 301.49 225.701 299.591 223.979C297.212 221.822 294.399 220.972 291.196 221.087C288.566 221.179 285.935 221.156 283.304 221.087C282.321 221.064 282.069 221.408 282.092 222.35C282.115 226.986 282.069 231.6 282.115 236.236C282.138 237.269 281.795 237.545 280.811 237.522C277.883 237.476 274.932 237.453 272.004 237.522C270.952 237.545 270.746 237.154 270.746 236.19C270.769 229.19 270.746 222.212 270.746 215.257Z" fill="#EB870E"/>
<path d="M136.723 237.43C124.988 238.165 114.054 226.826 114.352 214.959C114.672 202.77 124.622 193.589 134.527 192.786C149.327 191.592 159.278 203.62 159.232 215.349C159.209 227.239 148.664 238.05 136.723 237.43ZM125.858 215.165C125.949 222.441 130.364 226.596 137.981 226.458C142.648 226.367 147.978 221.409 147.841 215.028C147.726 209.014 142.511 203.207 135.763 203.689C131.119 204.01 125.286 208.922 125.858 215.165Z" fill="#59A926"/>
<path d="M266.356 215.142C266.356 222.074 266.356 228.983 266.356 235.915C266.356 237.453 266.356 237.453 264.892 237.453C257 237.43 249.108 237.522 241.216 237.315C237.373 237.223 233.965 235.548 230.877 233.298C227.377 230.751 224.7 227.491 223.168 223.474C222.321 221.271 221.727 218.861 221.658 216.519C221.475 209.06 221.612 201.6 221.567 194.14C221.567 193.061 221.887 192.786 222.939 192.832C226.645 192.969 229.527 194.645 231.448 197.698C232.249 198.983 232.684 200.682 232.752 202.219C232.958 206.948 232.752 211.699 232.958 216.451C233.164 220.904 236.229 225.012 240.896 226.137C241.834 226.366 242.84 226.481 243.801 226.504C247.164 226.55 250.503 226.481 253.866 226.527C254.895 226.55 255.147 226.183 255.147 225.196C255.101 217.575 255.078 209.978 255.147 202.357C255.17 198.134 258.281 194.163 262.535 193.268C263.267 193.107 264.022 192.969 264.777 192.9C266.333 192.717 266.356 192.763 266.356 194.392C266.356 201.301 266.356 208.233 266.356 215.142Z" fill="#EB870E"/>
<path d="M109.936 192.602C109.936 193.796 109.936 194.599 109.936 195.379C109.936 208.922 109.914 222.464 109.959 235.984C109.959 237.132 109.708 237.476 108.518 237.453C100.672 237.384 92.8031 237.522 84.957 237.338C81.6631 237.269 78.5978 236.007 75.83 234.194C71.5295 231.37 68.2584 227.606 66.4512 222.74C65.9251 221.317 65.582 219.71 65.5362 218.195C65.3304 210.253 65.2389 202.311 65.1016 194.369C65.0787 192.809 65.1016 192.763 66.7029 192.809C71.8268 192.946 76.4247 197.193 76.4018 202.357C76.379 206.535 76.3332 210.689 76.4476 214.867C76.5848 219.962 78.8037 223.819 83.6074 225.907C84.2937 226.206 85.0714 226.389 85.8034 226.389C89.6464 226.458 93.5123 226.412 97.3552 226.481C98.3846 226.504 98.6362 226.114 98.6362 225.15C98.6134 217.92 98.6134 210.689 98.6362 203.459C98.6591 198.983 101.038 194.851 105.43 193.428C106.803 193.038 108.289 192.9 109.936 192.602Z" fill="#59A926"/>
<path d="M148.48 262.793C148.48 258.96 148.48 255.127 148.48 251.018C149.258 251.248 149.922 251.431 150.837 251.684C152.575 250.559 154.199 250.628 155.595 252.143C157.059 253.727 157.127 256.366 155.778 258.157C154.634 259.672 152.895 259.809 150.288 258.501C150.288 259.557 150.288 260.521 150.288 261.485C150.288 263.092 150.173 263.184 148.48 262.793ZM150.31 255.219C150.288 256.803 151.134 257.79 152.552 257.813C153.97 257.835 154.977 256.78 154.954 255.242C154.931 253.796 153.925 252.625 152.689 252.579C151.363 252.51 150.31 253.704 150.31 255.219Z" fill="#EB870E"/>
<path d="M135.9 247.759C136.174 249.458 136.174 249.481 134.573 249.503C133.384 249.526 132.194 249.641 131.371 250.651C131.211 250.858 131.256 251.248 131.211 251.569C131.485 251.569 131.76 251.638 132.011 251.569C134.299 250.858 136.266 251.799 136.884 253.956C137.593 256.344 136.38 258.731 134.184 259.35C131.897 259.993 129.678 258.8 129.06 256.458C128.374 253.865 128.534 251.34 130.387 249.274C131.851 247.713 133.887 247.805 135.9 247.759ZM132.995 252.832C131.599 252.832 130.501 253.979 130.524 255.38C130.547 256.871 131.508 257.927 132.835 257.95C134.253 257.973 135.442 256.757 135.42 255.334C135.42 254.002 134.299 252.832 132.995 252.832Z" fill="#EB870E"/>
<path d="M26.969 247.782C27.1749 249.458 27.1749 249.504 25.6194 249.504C23.9037 249.504 22.4398 249.917 21.7764 251.707C21.7306 251.822 21.7078 251.914 21.7078 252.028C21.7078 252.097 21.7535 252.166 21.7993 252.327C22.3254 252.051 22.8058 251.707 23.3548 251.501C24.7959 250.996 26.0997 251.386 27.0834 252.465C28.0899 253.52 28.3415 254.898 27.9984 256.321C27.5409 258.249 25.7795 259.649 24.0181 259.626C22.028 259.58 20.4954 258.249 19.9921 256.091C19.5346 254.14 19.649 252.212 20.5869 250.422C21.9365 247.828 24.407 247.782 26.969 247.782ZM23.9952 252.832C22.6456 252.832 21.4561 254.025 21.4333 255.403C21.4333 256.803 22.5999 257.996 23.9495 257.973C25.2991 257.973 26.42 256.78 26.3971 255.334C26.3971 253.957 25.322 252.832 23.9952 252.832Z" fill="#EB870E"/>
<path d="M41.2431 258.547C41.2431 260.039 41.2431 261.416 41.2431 262.748C39.619 263.23 39.4131 263.092 39.4131 261.577C39.4131 258.524 39.4131 255.471 39.4131 252.419C39.4131 252.051 39.4588 251.684 39.4817 251.041C40.2366 251.248 40.8771 251.432 41.815 251.684C43.8279 250.513 45.2462 250.628 46.8474 252.419C47.9454 253.658 47.9912 256.55 46.9161 258.019C45.7037 259.672 44.1253 259.856 41.2431 258.547ZM41.266 255.173C41.266 256.734 42.2267 257.836 43.6221 257.813C45.0174 257.79 45.9553 256.78 46.0011 255.265C46.0468 253.888 44.8344 252.533 43.5992 252.556C42.364 252.579 41.266 253.819 41.266 255.173Z" fill="#EB870E"/>
<path d="M167.558 251.271C169.411 251.271 171.264 251.271 173.231 251.271C173.231 253.406 173.231 255.494 173.231 257.537C174.901 257.927 175.107 258.547 174.603 261.302C174.146 261.302 173.666 261.302 173.117 261.302C173.071 260.636 173.025 260.039 172.979 259.282C170.875 259.282 168.793 259.259 166.712 259.305C166.529 259.305 166.277 259.672 166.231 259.901C166.163 260.337 166.208 260.797 166.208 261.302C165.637 261.302 165.202 261.302 164.699 261.302C164.699 260.108 164.699 258.96 164.699 257.836C166.78 257.514 166.414 257.537 166.872 255.196C167.169 253.933 167.329 252.625 167.558 251.271ZM168.153 257.652C169.319 257.652 170.44 257.652 171.721 257.652C171.721 256.367 171.721 255.173 171.721 253.956C171.721 253.406 171.881 252.694 170.944 252.809C170.12 252.901 168.999 252.327 168.77 253.75C168.519 255.012 168.359 256.275 168.153 257.652Z" fill="#EB870E"/>
<path d="M252.287 258.34C252.287 259.626 252.287 260.796 252.287 261.967C252.287 262.564 252.242 263 251.464 263C250.709 263 250.595 262.656 250.595 262.013C250.618 258.455 250.595 254.92 250.595 251.248C251.35 251.34 252.242 250.628 252.356 251.73C253.5 251.5 254.621 251.041 255.696 251.133C256.474 251.202 257.366 251.891 257.915 252.533C259.264 254.071 259.058 256.826 257.686 258.34C256.336 259.787 254.689 259.832 252.287 258.34ZM254.689 257.813C256.108 257.813 257.137 256.711 257.137 255.219C257.137 253.796 256.016 252.556 254.712 252.533C253.408 252.51 252.219 253.819 252.219 255.265C252.219 256.757 253.271 257.835 254.689 257.813Z" fill="#EB870E"/>
<path d="M77.9798 258.271C77.9798 259.534 77.9798 260.705 77.9798 261.875C77.9798 262.38 78.1171 262.977 77.2478 263C76.4243 263.023 76.4472 262.472 76.4472 261.921C76.4472 258.593 76.4243 255.288 76.4243 251.959C76.4243 251.776 76.4701 251.592 76.5387 251.317C76.9504 251.294 77.3622 251.271 77.7968 251.248C77.9112 251.592 78.0027 251.913 78.1399 252.327C79.8098 250.835 81.5483 250.513 83.2868 252.097C84.5906 253.291 84.888 255.77 84.0416 257.422C82.8521 259.649 81.0679 259.947 77.9798 258.271ZM82.8293 255.402C82.8521 253.841 81.8228 252.579 80.496 252.579C79.2379 252.556 78.0484 253.864 78.0484 255.242C78.0484 256.619 79.215 257.858 80.5189 257.835C81.777 257.812 82.8064 256.757 82.8293 255.402Z" fill="#EB870E"/>
<path d="M185.469 251.202C187.162 251.202 188.672 251.156 190.204 251.225C192.08 251.317 192.675 253.245 191.6 254.691C191.966 255.632 192.515 256.412 192.56 257.239C192.629 258.318 191.462 259.282 190.25 259.35C188.923 259.419 187.596 259.419 186.247 259.328C185.972 259.305 185.492 258.891 185.492 258.639C185.446 256.206 185.469 253.773 185.469 251.202ZM187.482 257.927C188.26 257.927 189.129 257.996 189.976 257.881C190.227 257.859 190.616 257.445 190.662 257.17C190.73 256.826 190.547 256.114 190.387 256.091C189.472 255.907 188.534 255.793 187.619 255.907C187.459 255.93 187.436 257.101 187.368 257.744C187.322 257.744 187.368 257.79 187.482 257.927ZM187.047 252.579C187.299 253.383 187.368 254.37 187.711 254.461C188.374 254.668 189.198 254.461 189.907 254.232C190.159 254.163 190.41 253.566 190.364 253.245C190.342 252.992 189.907 252.625 189.61 252.602C188.878 252.51 188.168 252.579 187.047 252.579Z" fill="#EB870E"/>
<path d="M305.585 251.202C307.324 251.202 308.902 251.11 310.503 251.225C312.333 251.363 312.814 253.13 311.51 254.897C312.493 255.701 312.928 256.917 312.471 257.973C312.013 259.006 311.075 259.327 310.046 259.35C308.833 259.396 307.621 259.396 306.386 259.327C306.111 259.304 305.631 258.983 305.631 258.799C305.562 256.298 305.585 253.773 305.585 251.202ZM309.154 257.996C309.222 257.996 309.68 258.088 309.954 257.927C310.343 257.675 310.801 257.262 310.892 256.825C310.938 256.573 310.366 256.022 310 255.93C309.36 255.747 308.65 255.747 307.987 255.793C307.758 255.816 307.438 256.16 307.369 256.412C307.026 257.675 307.369 257.996 309.154 257.996ZM307.003 252.51C307.392 253.382 307.507 254.232 307.964 254.53C308.399 254.806 309.222 254.576 309.817 254.369C310.114 254.255 310.48 253.681 310.435 253.382C310.389 253.061 309.909 252.625 309.565 252.579C308.856 252.418 308.124 252.51 307.003 252.51Z" fill="#EB870E"/>
<path d="M55.5851 252.304C55.6537 251.89 55.6995 251.615 55.7452 251.271C56.2027 251.271 56.6602 251.271 57.1635 251.271C57.1635 253.91 57.1635 256.527 57.1635 259.144C56.3629 259.327 55.6537 259.488 55.5851 258.639C54.4185 258.891 53.2519 259.396 52.131 259.304C51.3533 259.258 50.4611 258.57 49.935 257.904C48.654 256.275 48.8599 253.451 50.1638 252.074C51.582 250.628 53.1146 250.674 55.5851 252.304ZM53.1146 252.556C51.8336 252.579 50.8271 253.819 50.8271 255.311C50.85 256.78 51.8794 257.858 53.2061 257.789C54.5557 257.721 55.6995 256.504 55.6309 255.15C55.5851 253.841 54.327 252.556 53.1146 252.556Z" fill="#EB870E"/>
<path d="M200.269 252.212C200.269 250.881 201.138 251.271 201.893 251.225C201.893 253.888 201.893 256.481 201.893 259.144C201.138 259.259 200.315 259.626 200.315 258.318C197.547 259.741 195.854 259.626 194.664 258.019C193.544 256.504 193.635 253.612 194.847 252.35C196.449 250.674 197.89 250.605 200.269 252.212ZM200.269 255.265C200.269 253.796 199.194 252.579 197.89 252.579C196.609 252.579 195.534 253.842 195.557 255.311C195.579 256.803 196.586 257.881 197.913 257.836C199.331 257.767 200.269 256.757 200.269 255.265Z" fill="#EB870E"/>
<path d="M17.9334 259.488C17.2242 259.213 16.6981 259.006 16.1491 258.776C15.257 258.96 14.1361 259.419 13.061 259.35C12.3061 259.304 11.414 258.708 10.8879 258.088C9.53827 256.573 9.62977 253.704 10.9336 252.281C12.4205 250.651 13.976 250.559 15.9432 251.799C16.6524 251.5 17.2014 251.271 17.9334 250.949C17.9334 253.887 17.9334 256.527 17.9334 259.488ZM16.3779 255.265C16.3779 253.819 15.2799 252.579 13.9989 252.579C12.8094 252.579 11.6428 253.842 11.6199 255.196C11.5741 256.573 12.7408 257.835 14.0675 257.812C15.44 257.789 16.3779 256.757 16.3779 255.265Z" fill="#EB870E"/>
<path d="M303.733 251.294C303.733 253.933 303.733 256.527 303.733 259.075C302.178 259.396 302.086 259.327 302.086 257.835C302.086 256.573 302.086 255.334 302.086 253.842C301.766 254.094 301.514 254.209 301.377 254.415C300.485 255.793 299.616 257.147 298.769 258.547C298.266 259.373 297.488 259.419 296.779 259.167C296.505 259.075 296.344 258.317 296.322 257.858C296.276 255.701 296.299 253.52 296.299 251.294C296.871 251.294 297.305 251.294 297.923 251.294C297.923 252.992 297.923 254.668 297.923 256.366C298.037 256.389 298.129 256.435 298.243 256.458C299.112 255.173 300.004 253.865 300.874 252.579C301.834 251.133 301.834 251.133 303.733 251.294Z" fill="#EB870E"/>
<path d="M267.979 256.596C267.522 258.776 265.531 259.832 263.427 259.396C261.071 258.891 259.744 256.711 260.27 254.163C260.705 252.028 262.924 250.651 265.165 251.11C267.339 251.546 268.597 253.405 268.139 255.701C266.103 255.701 264.022 255.701 261.894 255.701C261.963 256.894 262.581 257.514 263.45 257.881C264.342 258.249 265.188 258.042 266.012 257.468C266.515 257.078 267.178 256.917 267.979 256.596ZM262.1 254.278C263.541 254.278 264.96 254.278 266.401 254.278C266.195 253.107 265.669 252.579 264.731 252.51C263.198 252.372 262.535 252.809 262.1 254.278Z" fill="#EB870E"/>
<path d="M276.168 252.143C276.168 250.858 277.015 251.271 277.724 251.248C277.724 253.888 277.724 256.504 277.724 259.121C276.923 259.35 276.237 259.488 276.1 258.409C273.309 259.81 271.822 259.672 270.495 257.95C269.466 256.642 269.558 253.612 270.656 252.35C272.074 250.697 273.561 250.605 276.168 252.143ZM276.237 255.242C276.237 253.796 275.047 252.51 273.744 252.533C272.485 252.556 271.365 253.842 271.365 255.242C271.365 256.757 272.394 257.859 273.789 257.836C275.208 257.836 276.214 256.757 276.237 255.242Z" fill="#EB870E"/>
<path d="M230.396 256.963C229.824 258.891 227.742 259.901 225.546 259.35C223.327 258.777 222.115 256.481 222.71 254.002C223.19 252.005 225.386 250.628 227.468 251.064C229.687 251.523 230.968 253.36 230.602 255.701C228.543 255.701 226.484 255.701 224.357 255.701C224.242 256.826 224.814 257.376 225.592 257.767C226.53 258.249 227.468 258.18 228.245 257.514C228.886 256.917 229.549 256.619 230.396 256.963ZM224.425 254.255C225.935 254.255 227.353 254.255 228.794 254.255C228.589 253.084 228.017 252.579 226.987 252.51C225.523 252.396 224.883 252.832 224.425 254.255Z" fill="#EB870E"/>
<path d="M236.686 251.271C237.28 251.271 237.761 251.271 238.287 251.271C238.287 253.038 238.287 254.783 238.287 256.527C238.356 256.573 238.424 256.619 238.516 256.665C239.019 255.953 239.545 255.265 240.025 254.553C240.506 253.865 241.055 253.199 241.398 252.464C241.947 251.294 242.793 250.973 244.074 251.317C244.074 253.911 244.074 256.55 244.074 259.259C243.617 259.259 243.182 259.259 242.61 259.259C242.61 257.491 242.61 255.747 242.61 254.025C242.519 253.979 242.427 253.933 242.313 253.888C241.718 254.76 241.101 255.632 240.506 256.504C239.98 257.262 239.522 258.042 238.95 258.754C238.744 259.006 238.378 259.236 238.058 259.282C237.12 259.442 236.594 259.236 236.64 258.042C236.754 255.816 236.686 253.566 236.686 251.271Z" fill="#EB870E"/>
<path d="M74.6405 255.288C74.7548 257.767 72.8334 259.534 70.523 259.557C68.2126 259.58 66.314 257.813 66.2454 255.242C66.1997 252.901 68.1898 250.927 70.5001 250.95C72.9706 250.995 74.6405 252.74 74.6405 255.288ZM68.1211 255.15C68.0525 256.596 68.9446 257.698 70.3171 257.813C71.6439 257.927 72.8791 256.826 72.9706 255.425C73.0621 254.048 71.8955 252.648 70.5916 252.579C69.3106 252.487 68.1898 253.658 68.1211 255.15Z" fill="#EB870E"/>
<path d="M113.254 255.655C111.103 255.655 109.022 255.655 106.894 255.655C106.872 256.871 107.512 257.514 108.427 257.881C109.296 258.226 110.097 258.065 110.898 257.514C111.469 257.124 112.156 256.94 113.048 256.573C112.407 258.777 110.463 259.832 108.519 259.373C106.071 258.799 104.904 256.986 105.293 254.301C105.591 252.304 107.558 250.812 109.662 251.018C111.95 251.225 113.368 252.969 113.254 255.655ZM111.561 254.324C110.966 252.717 110.074 252.12 108.747 252.464C107.878 252.694 107.123 253.176 107.077 254.324C108.61 254.324 110.028 254.324 111.561 254.324Z" fill="#EB870E"/>
<path d="M175.564 255.242C175.564 252.74 177.326 250.926 179.75 250.949C182.061 250.972 183.937 252.877 183.937 255.173C183.937 257.514 181.992 259.649 179.728 259.557C177.371 259.488 175.404 257.675 175.564 255.242ZM182.267 255.242C182.267 253.841 181.054 252.533 179.728 252.533C178.401 252.51 177.188 253.818 177.188 255.242C177.188 256.711 178.332 257.835 179.796 257.835C181.146 257.835 182.267 256.665 182.267 255.242Z" fill="#EB870E"/>
<path d="M33.6023 250.949C35.9584 250.926 37.9028 252.831 37.8341 255.219C37.7198 258.019 36.0041 259.534 33.6023 259.534C31.3605 259.534 29.5992 258.18 29.439 255.287C29.3247 252.877 31.2004 250.972 33.6023 250.949ZM36.027 255.242C36.027 253.818 34.9061 252.579 33.648 252.556C32.3899 252.533 31.2233 253.796 31.2004 255.196C31.2004 256.688 32.2298 257.812 33.6023 257.835C34.9976 257.835 36.027 256.734 36.027 255.242Z" fill="#EB870E"/>
<path d="M219.005 253.773C217.975 255.334 216.969 256.895 215.894 258.409C215.642 258.777 215.185 259.121 214.773 259.213C213.949 259.419 213.446 259.167 213.469 258.111C213.538 255.862 213.492 253.635 213.492 251.294C214.018 251.271 214.43 251.248 214.979 251.225C214.979 253.038 214.979 254.806 214.979 256.573C215.093 256.619 215.185 256.642 215.299 256.688C216.214 255.334 217.129 253.979 218.021 252.602C218.959 251.156 218.959 251.156 220.72 251.317C220.72 253.911 220.72 256.527 220.72 259.19C220.263 259.19 219.851 259.19 219.325 259.19C219.325 257.377 219.325 255.609 219.325 253.842C219.211 253.819 219.096 253.796 219.005 253.773Z" fill="#EB870E"/>
<path d="M142.624 250.995C145.209 251.041 146.764 252.992 146.879 255.311C146.993 257.445 144.751 259.603 142.67 259.603C140.52 259.603 138.507 257.56 138.461 255.334C138.415 252.969 140.314 250.995 142.624 250.995ZM145.049 255.334C145.346 253.887 143.722 252.533 142.67 252.533C141.366 252.533 140.154 253.819 140.154 255.242C140.154 256.665 141.229 257.812 142.578 257.835C143.996 257.881 145.049 256.803 145.049 255.334Z" fill="#EB870E"/>
<path d="M123.318 250.995C125.629 251.041 127.505 252.946 127.39 255.288C127.253 258.203 125.56 259.35 123.25 259.557C121.077 259.741 119.064 257.537 119.087 255.265C119.087 252.878 121.008 250.949 123.318 250.995ZM120.825 255.104C120.802 256.711 121.74 257.767 123.204 257.813C124.599 257.858 125.72 256.757 125.743 255.311C125.766 253.865 124.622 252.556 123.318 252.533C122.083 252.51 120.848 253.773 120.825 255.104Z" fill="#EB870E"/>
<path d="M103.692 255.242C103.738 257.996 101.679 259.511 99.5749 259.511C97.4246 259.511 95.4345 257.858 95.4803 255.196C95.526 252.831 97.2645 251.018 99.552 251.018C101.954 250.995 103.692 252.786 103.692 255.242ZM102.114 255.264C102.114 253.887 100.856 252.533 99.552 252.556C98.3168 252.579 97.1044 253.91 97.1044 255.242C97.1044 256.642 98.2481 257.812 99.5978 257.812C100.947 257.835 102.114 256.642 102.114 255.264Z" fill="#EB870E"/>
<path d="M93.6033 259.167C92.551 259.465 91.9792 259.281 92.0935 258.088C92.1622 257.445 92.0935 256.802 92.0935 255.953C90.7897 255.953 89.5544 255.93 88.3192 255.976C88.1362 255.976 87.8846 256.366 87.8388 256.596C87.7702 257.032 87.8388 257.514 87.8388 257.973C87.8388 259.419 87.7244 259.511 86.1689 259.144C86.1689 256.527 86.1689 253.91 86.1689 251.248C86.6951 251.248 87.1754 251.248 87.8159 251.248C87.8159 252.005 87.7702 252.763 87.8388 253.497C87.8617 253.773 88.1819 254.255 88.4107 254.255C89.5773 254.324 90.7439 254.301 92.0249 254.301C92.0249 253.199 92.0249 252.258 92.0249 251.248C92.5739 251.248 93.0085 251.248 93.5575 251.248C93.6033 253.864 93.6033 256.481 93.6033 259.167Z" fill="#EB870E"/>
<path d="M209.831 255.93C208.504 255.93 207.315 255.884 206.148 255.953C205.92 255.976 205.577 256.412 205.554 256.665C205.485 257.445 205.531 258.249 205.531 259.121C204.982 259.121 204.547 259.121 204.044 259.121C204.044 256.504 204.044 253.933 204.044 251.271C204.501 251.271 204.936 251.271 205.462 251.271C205.485 252.005 205.554 252.717 205.554 253.428C205.554 254.048 205.805 254.347 206.423 254.324C206.469 254.324 206.492 254.324 206.537 254.324C207.567 254.301 208.848 254.645 209.511 254.14C210.037 253.727 209.808 252.327 209.946 251.271C210.403 251.271 210.861 251.271 211.501 251.271C211.501 253.75 211.524 256.183 211.455 258.593C211.455 258.799 210.883 259.167 210.609 259.144C210.334 259.144 209.9 258.754 209.854 258.478C209.763 257.721 209.831 256.871 209.831 255.93Z" fill="#EB870E"/>
<path d="M4.11714 252.717C3.79689 254.369 3.56814 255.999 3.08777 257.537C2.88189 258.226 2.26427 258.937 1.64665 259.304C0.480029 259.97 -0.0460932 259.534 0.0225315 258.065C1.37215 257.996 1.66952 257.032 1.82965 255.884C2.01265 254.53 2.21852 253.176 2.47015 251.845C2.51589 251.592 2.85902 251.225 3.06489 251.225C4.75763 251.179 6.47325 251.202 8.25749 251.202C8.25749 253.819 8.28037 256.275 8.21174 258.754C8.21174 258.937 7.66275 259.304 7.434 259.259C7.13662 259.19 6.74775 258.799 6.72487 258.524C6.65625 257.307 6.67913 256.091 6.67913 254.851C6.65625 252.418 6.65625 252.418 4.11714 252.717Z" fill="#EB870E"/>
<path d="M315.902 251.294C315.902 252.097 315.902 252.854 315.902 253.772C316.817 253.772 317.64 253.75 318.464 253.772C320.019 253.818 320.889 254.737 320.934 256.297C320.98 257.973 320.088 259.121 318.578 259.212C317.366 259.281 316.131 259.281 314.918 259.19C314.621 259.167 314.14 258.685 314.118 258.409C314.049 256.274 314.049 254.14 314.072 252.005C314.118 251.179 314.209 251.156 315.902 251.294ZM315.993 257.675C316.817 257.675 317.549 257.812 318.166 257.629C318.647 257.491 319.173 256.94 319.31 256.481C319.493 255.838 319.036 255.31 318.304 255.242C317.549 255.196 316.794 255.219 315.993 255.219C315.993 256.068 315.993 256.825 315.993 257.675Z" fill="#EB870E"/>
<path d="M157.333 251.34C158.454 250.972 159.094 251.271 159.483 252.35C159.918 253.612 160.535 254.828 161.222 256.412C161.931 254.851 162.571 253.658 163.006 252.395C163.372 251.271 164.012 250.995 165.225 251.317C164.401 253.199 163.578 255.058 162.754 256.917C161.999 258.593 161.199 260.245 160.535 261.944C160.101 263.023 159.437 263.161 158.362 262.816C158.888 261.646 159.346 260.475 159.918 259.373C160.284 258.639 160.33 257.973 159.941 257.216C159.14 255.609 158.431 253.956 157.699 252.327C157.539 251.982 157.447 251.661 157.333 251.34Z" fill="#EB870E"/>
<path d="M282.939 254.875C284.518 256.39 285.844 257.629 287.331 259.029C286.21 259.373 285.455 259.465 284.723 258.731C283.763 257.744 282.733 256.803 281.475 255.563C281.475 257.009 281.475 258.065 281.475 259.213C280.903 259.213 280.492 259.213 280.011 259.213C280.011 256.573 280.011 253.979 280.011 251.294C280.469 251.294 280.903 251.294 281.475 251.294C281.475 252.304 281.475 253.268 281.475 254.232C281.567 254.278 281.658 254.324 281.727 254.37C282.413 253.704 283.191 253.084 283.786 252.327C284.563 251.363 285.501 251.018 286.805 251.317C285.501 252.464 284.289 253.612 282.939 254.875Z" fill="#EB870E"/>
<path d="M58.5358 251.248C60.8462 251.248 63.0879 251.248 65.3068 251.248C65.6956 252.717 65.627 252.832 64.1401 252.832C63.7741 252.832 63.4081 252.832 62.882 252.832C62.882 255.035 62.882 257.124 62.882 259.282C62.2644 259.282 61.8069 259.282 61.2122 259.282C61.2122 257.147 61.2122 255.081 61.2122 253.176C60.3658 252.258 58.1012 253.91 58.5358 251.248Z" fill="#EB870E"/>
<path d="M292.363 252.854C292.363 254.691 292.363 256.435 292.363 258.18C292.363 258.708 292.5 259.258 291.631 259.281C290.738 259.304 290.784 258.753 290.784 258.157C290.784 256.871 290.738 255.563 290.784 254.278C290.83 253.199 290.533 252.671 289.297 252.786C287.925 252.9 287.902 252.786 288.039 251.317C290.281 251.317 292.546 251.317 294.856 251.317C294.856 251.799 294.856 252.235 294.856 252.763C294.055 252.786 293.278 252.832 292.363 252.854Z" fill="#EB870E"/>
<path d="M322.308 251.339C323.955 251.064 324 251.11 324 252.625C324 254.346 324 256.045 324 257.766C324 259.212 323.84 259.35 322.308 259.121C322.308 256.55 322.308 253.956 322.308 251.339Z" fill="#EB870E"/>
</g>
<defs>
<clipPath id="clip0_14_950">
<rect width="324" height="263" fill="white"/>
</clipPath>
</defs>
</svg>
