<svg width="220" height="169" viewBox="0 0 220 169" fill="none" xmlns="http://www.w3.org/2000/svg">
<g clip-path="url(#clip0_14_777)">
<path d="M41.609 57.531C41.5773 60.4043 41.609 63.2777 41.609 66.151C41.609 77.3731 41.609 88.6111 41.609 99.8332C41.609 100.839 41.6406 100.823 42.6211 100.887C44.0603 100.967 45.4836 101.11 46.9227 101.254C48.6465 101.414 50.3545 101.669 52.0783 101.749C56.5697 101.956 61.0769 102.164 65.5683 102.196C68.4624 102.228 71.3565 101.988 74.2348 101.797C76.5279 101.653 78.8369 101.477 81.1142 101.158C83.091 100.887 85.0679 100.456 87.0289 99.9928C89.5434 99.4181 92.0738 98.9073 94.5093 98.0932C97.4034 97.1194 100.234 95.9382 103.002 94.6611C106.75 92.9371 110.197 90.6544 113.455 88.0843C116.444 85.7378 119.18 83.1517 121.521 80.1826C123.64 77.4848 125.569 74.6274 127.372 71.7062C128.701 69.5671 129.744 67.2365 130.836 64.9538C131.516 63.5331 132.101 62.0805 132.623 60.5959C133.366 58.4728 134.046 56.3178 134.71 54.1468C135.153 52.7101 135.533 51.2415 135.912 49.7729C136.26 48.3682 136.561 46.9634 136.877 45.5587C137.162 44.2497 137.478 42.9407 137.683 41.6317C137.937 40.0993 138.079 38.5509 138.284 37.0024C138.569 34.8793 138.917 32.7722 139.138 30.6491C139.376 28.3026 139.565 25.956 139.692 23.5934C139.834 20.7201 139.977 17.8627 139.977 14.9893C139.977 10.3122 139.818 5.63497 139.787 0.957782C139.787 0.159627 139.518 -0.0319296 138.775 -3.40887e-06C135.406 0.111738 132.038 0.143664 128.669 0.239443C125.19 0.335221 121.726 0.446963 118.247 0.558705C117.82 0.574668 117.409 0.654483 116.982 0.68641C115.053 0.84604 113.107 1.00567 111.178 1.1653C109.929 1.27704 108.679 1.37282 107.43 1.50053C106.544 1.59631 105.674 1.72401 104.789 1.85172C103.793 2.01135 102.796 2.21887 101.8 2.3785C100.361 2.60198 98.9058 2.76161 97.4666 3.03298C95.901 3.32032 94.3511 3.68747 92.8013 4.05462C91.0775 4.46966 89.3378 4.86874 87.6615 5.42745C85.4 6.17771 83.1859 7.05568 80.9718 7.93365C79.9281 8.34869 78.9317 8.92336 77.9196 9.43418C77.9512 9.514 77.967 9.57785 77.9987 9.65767C78.2201 9.67363 78.4415 9.70555 78.6787 9.70555C83.9134 9.67363 89.1639 9.60978 94.3986 9.60978C106.133 9.59381 117.852 9.60978 129.586 9.59381C130.187 9.59381 130.425 9.76941 130.409 10.4079C130.298 15.4523 130.219 20.5126 130.124 25.5569C130.124 25.7485 130.077 25.9241 130.061 26.1156C129.887 27.6321 129.697 29.1486 129.539 30.6811C129.412 31.99 129.349 33.315 129.207 34.6239C129.128 35.4061 128.97 36.1724 128.843 36.9546C128.59 38.4072 128.337 39.8439 128.068 41.2965C127.847 42.5416 127.641 43.7868 127.356 45.0159C126.929 46.7719 126.471 48.5118 125.965 50.2358C125.348 52.3589 124.794 54.514 124.004 56.5732C123.071 59.0315 122.011 61.4579 120.841 63.8045C119.75 65.9914 118.5 68.1145 117.156 70.1578C116.049 71.8179 114.768 73.3823 113.455 74.8669C112.19 76.3036 110.767 77.6285 109.407 78.9854C109.312 79.0811 109.09 79.0811 108.885 79.129C108.869 78.8257 108.853 78.6182 108.853 78.4107C108.869 62.0485 108.885 45.6864 108.916 29.3402C108.916 28.7974 108.774 28.6537 108.252 28.6537C101.578 28.7176 94.9204 28.7016 88.2466 28.8293L81.6361 28.9251C75.4367 28.9092 69.2531 28.9411 63.0538 28.9411C62.3895 28.9411 62.1049 29.1007 62.1049 29.8191C62.1365 36.5714 62.1523 43.3398 62.1839 50.0922C62.1839 51.2415 62.1998 51.2415 61.0769 51.2415C54.9092 51.2415 48.7414 51.2256 42.5737 51.2256C42.2732 51.2256 41.9569 51.2256 41.5773 51.2256C41.5773 52.343 41.5615 53.3646 41.5773 54.3862L41.609 57.531ZM99.4593 82.8325C99.4593 83.5508 99.4435 84.2851 99.2379 84.9715C99.0955 85.4504 98.7318 86.0411 98.3048 86.2326C96.2963 87.1265 94.272 87.9885 92.1845 88.6909C90.1602 89.3773 88.0885 89.9361 86.0168 90.4309C84.1348 90.8619 82.2212 91.1812 80.3076 91.4525C78.0461 91.7718 75.7846 92.0591 73.5073 92.2507C71.2774 92.4423 69.0317 92.6019 66.8018 92.57C62.5635 92.5061 58.3251 92.3145 54.1026 92.1549C53.1537 92.123 52.2048 92.0751 51.256 92.0432C50.2438 91.9953 50.1015 91.8676 50.1015 90.8779C50.1015 80.7094 50.1015 70.5569 50.0699 60.3884C50.0699 59.7179 50.3071 59.5104 50.9397 59.5264C54.3715 59.5902 57.7874 59.6381 61.2192 59.6541C61.9942 59.6541 62.1998 59.9574 62.1998 60.7076C62.1839 67.0609 62.1839 73.4142 62.1839 79.7835C62.1839 81.0446 62.1839 81.0446 63.3859 81.0446C67.4661 81.0446 71.5621 81.1085 75.6423 81.0127C78.1568 80.9488 80.6714 80.8211 83.091 79.9751C85.7795 79.0492 87.7089 77.2135 89.2746 74.9307C90.4765 73.1588 91.2672 71.1635 91.5519 69.0723C92.1687 64.5547 91.5361 60.2766 88.7527 56.4774C87.3136 54.514 85.5265 53.0453 83.265 52.2472C81.1932 51.5129 79.0108 51.2894 76.8284 51.2734C75.0097 51.2575 73.191 51.2575 71.3723 51.2894C70.7713 51.3054 70.5341 51.1138 70.5341 50.4753C70.5499 46.8357 70.5499 43.1802 70.5341 39.5406C70.5341 38.9978 70.7239 38.7903 71.2616 38.7743C80.2918 38.6945 89.3378 38.5988 98.3681 38.487C99.0639 38.471 99.2695 38.7424 99.2695 39.4288C99.2537 46.724 99.2537 54.0031 99.2537 61.2983C99.3169 61.2983 99.3802 61.2983 99.4435 61.2983C99.4593 68.4657 99.4751 75.6491 99.4593 82.8325ZM72.8747 66.2149C72.8747 64.7782 72.9063 63.3415 72.8747 61.9049C72.8589 61.2344 73.0645 60.8992 73.7761 60.963C75.4209 61.0907 77.0814 61.0429 78.6945 61.3302C80.5132 61.6654 81.9207 63.1979 82.2528 65.2252C82.5375 66.9971 82.1263 68.6413 80.7979 69.9503C79.8964 70.8442 78.7578 71.2592 77.54 71.3391C76.2274 71.4189 74.9148 71.3391 73.5864 71.355C73.0329 71.371 72.8589 71.1156 72.8589 70.5888C72.8905 69.1361 72.8747 67.6835 72.8747 66.2149Z" fill="#59A926"/>
<path d="M24.8775 106.171C26.7753 106.171 28.6731 106.186 30.5708 106.155C31.156 106.139 31.3616 106.298 31.3299 106.921C31.2034 109.698 29.7326 111.614 27.4711 112.971C26.3799 113.625 25.1622 113.913 23.8496 113.833C22.6635 113.769 21.4774 113.801 20.2913 113.833C16.7804 113.913 13.8547 115.19 11.5773 117.967C10.0275 119.867 9.12605 121.974 8.98372 124.432C8.9679 124.736 8.82557 125.039 8.76231 125.358C8.60416 126.124 8.76231 126.3 9.53723 126.3C12.7793 126.3 16.0213 126.268 19.2633 126.3C22.8374 126.348 26.3009 126.923 29.4638 128.726C31.9151 130.115 34.0184 131.903 35.7264 134.186C37.2446 136.197 38.3991 138.4 38.9526 140.81C39.4903 143.157 39.7908 145.567 39.3955 148.058C39.0159 150.436 38.4624 152.687 37.3554 154.794C36.0744 157.236 34.3031 159.28 32.1681 161.004C30.6025 162.265 28.9419 163.35 27.0283 163.989C26.0004 164.34 24.9566 164.691 23.8812 164.787C21.7462 164.979 19.5638 165.266 17.4604 165.042C14.8826 164.755 12.4313 163.829 10.1856 162.408C8.16135 161.147 6.48499 159.503 4.96677 157.715C3.51182 155.991 2.46805 153.964 1.7722 151.777C1.06053 149.526 0.870757 147.244 0.886572 144.913C0.918202 138.129 0.854943 131.344 0.886572 124.56C0.902387 121.527 1.74057 118.686 3.25878 116.068C5.04585 112.987 7.51295 110.576 10.5336 108.741C12.4155 107.607 14.4556 106.793 16.6222 106.554C19.3582 106.234 22.1258 106.186 24.8775 106.027C24.8775 106.075 24.8775 106.123 24.8775 106.171ZM9.06279 141.13C9.06279 141.13 9.0786 141.13 9.06279 141.13C9.0786 143.077 9.04698 145.009 9.09442 146.956C9.11023 147.706 9.22094 148.505 9.47397 149.207C10.9606 153.309 13.5542 156.263 17.9507 157.22C19.8643 157.635 21.762 157.54 23.6282 156.965C25.9529 156.247 27.7242 154.746 29.1791 152.847C31.3299 150.021 31.7727 146.781 31.2192 143.364C30.9346 141.577 30.1596 140.028 29.0526 138.592C27.1865 136.149 24.7985 134.489 21.7304 134.329C17.8242 134.122 13.8863 134.234 9.96423 134.17C9.30001 134.154 9.01535 134.345 9.03116 135.08C9.09442 137.091 9.06279 139.118 9.06279 141.13Z" fill="#59A926"/>
<path d="M146.635 165.074C145.022 165.298 143.725 164.723 142.476 163.957C140.515 162.744 139.424 160.892 138.807 158.721C138.744 158.498 138.76 158.242 138.76 158.019C138.76 152.112 138.839 146.206 138.728 140.3C138.665 137.123 137.036 135.112 134.126 134.01C133.383 133.723 132.529 133.707 131.722 133.691C128.765 133.659 125.823 133.675 122.866 133.691C120.098 133.707 118.011 134.984 116.745 137.426C116.255 138.368 116.081 139.549 116.065 140.619C116.002 145.935 116.018 151.266 116.05 156.582C116.05 158.402 115.844 160.174 114.737 161.674C113.25 163.686 111.4 165.074 108.791 165.154C108.269 165.17 108.095 165.01 108.095 164.484C108.126 163.207 108.111 161.93 108.095 160.653C108.095 152.91 108.016 145.168 108.142 137.426C108.158 136.006 108.822 134.537 109.439 133.212C110.926 130.083 113.472 128.056 116.666 126.939C117.837 126.539 119.118 126.348 120.351 126.316C124.906 126.236 129.476 126.204 134.031 126.284C137.732 126.364 141.037 127.641 143.536 130.466C144.484 131.536 145.101 132.941 145.75 134.25C146.509 135.766 146.635 137.426 146.635 139.102C146.604 147.403 146.619 155.704 146.619 164.005C146.635 164.372 146.635 164.707 146.635 165.074Z" fill="#EB870E"/>
<path d="M183.183 149.702C183.183 144.833 183.183 139.964 183.183 135.096C183.183 134.09 183.23 134.042 184.211 134.122C187.01 134.329 189.192 135.591 190.363 138.208C190.805 139.214 190.916 140.395 191.011 141.513C191.122 142.806 191.058 144.115 191.043 145.424C191.043 145.935 191.248 146.126 191.754 146.11C194.095 146.094 196.451 146.222 198.792 146.062C201.006 145.919 202.777 144.817 204.137 142.997C205.608 141.05 205.798 138.831 205.782 136.532C205.766 134.409 205.782 134.409 207.854 134.409C209.483 134.409 211.127 134.425 212.756 134.409C213.373 134.393 213.673 134.569 213.642 135.271C213.547 137.043 213.626 138.847 213.405 140.603C213.12 142.886 212.298 145.025 210.922 146.892C210.289 147.754 209.546 148.553 208.803 149.319C208.36 149.782 208.36 150.101 208.818 150.5C210.068 151.586 211.064 152.894 211.76 154.379C212.329 155.576 212.74 156.869 213.152 158.146C213.816 160.206 213.594 162.345 213.658 164.452C213.673 164.963 213.515 165.17 212.993 165.17C210.811 165.154 208.613 165.154 206.43 165.17C205.893 165.17 205.782 164.963 205.782 164.452C205.766 163.047 205.782 161.626 205.608 160.238C205.371 158.45 204.438 156.965 203.125 155.768C201.48 154.267 199.535 153.677 197.321 153.757C195.502 153.82 193.684 153.804 191.865 153.757C191.185 153.741 191.011 153.98 191.027 154.634C191.043 157.859 191.011 161.068 191.043 164.292C191.058 165.01 190.821 165.202 190.141 165.186C188.117 165.154 186.077 165.138 184.052 165.186C183.325 165.202 183.183 164.931 183.183 164.26C183.198 159.391 183.183 154.539 183.183 149.702Z" fill="#EB870E"/>
<path d="M90.5247 165.122C82.4117 165.633 74.8522 157.747 75.0578 149.494C75.2792 141.018 82.1586 134.633 89.0064 134.074C99.2386 133.244 106.118 141.609 106.086 149.766C106.071 158.035 98.78 165.553 90.5247 165.122ZM83.0126 149.638C83.0759 154.698 86.1282 157.588 91.3945 157.492C94.6207 157.428 98.3055 153.98 98.2106 149.542C98.1316 145.36 94.5258 141.321 89.8604 141.656C86.65 141.88 82.6173 145.296 83.0126 149.638Z" fill="#59A926"/>
<path d="M180.146 149.622C180.146 154.443 180.146 159.248 180.146 164.069C180.146 165.138 180.146 165.138 179.134 165.138C173.678 165.122 168.222 165.186 162.766 165.042C160.109 164.978 157.753 163.813 155.618 162.249C153.198 160.477 151.348 158.21 150.288 155.417C149.703 153.884 149.292 152.208 149.244 150.58C149.118 145.392 149.213 140.204 149.181 135.016C149.181 134.266 149.402 134.074 150.13 134.106C152.692 134.202 154.685 135.367 156.013 137.49C156.567 138.384 156.867 139.565 156.914 140.635C157.057 143.923 156.914 147.228 157.057 150.532C157.199 153.629 159.318 156.486 162.545 157.268C163.193 157.428 163.889 157.508 164.553 157.524C166.878 157.556 169.187 157.508 171.511 157.54C172.223 157.556 172.397 157.3 172.397 156.614C172.365 151.314 172.35 146.03 172.397 140.731C172.413 137.793 174.564 135.032 177.505 134.409C178.011 134.297 178.533 134.202 179.055 134.154C180.131 134.026 180.146 134.058 180.146 135.191C180.146 139.996 180.146 144.817 180.146 149.622Z" fill="#EB870E"/>
<path d="M72.005 133.946C72.005 134.776 72.005 135.335 72.005 135.878C72.005 145.296 71.9892 154.714 72.0208 164.117C72.0208 164.915 71.8469 165.154 71.0245 165.138C65.6 165.09 60.1598 165.186 54.7353 165.058C52.458 165.01 50.3388 164.132 48.4252 162.871C45.4521 160.908 43.1905 158.29 41.9412 154.906C41.5774 153.916 41.3402 152.799 41.3086 151.745C41.1663 146.222 41.103 140.699 41.0081 135.175C40.9923 134.09 41.0081 134.058 42.1151 134.09C45.6576 134.186 48.8364 137.139 48.8206 140.731C48.8048 143.636 48.7732 146.525 48.8522 149.43C48.9471 152.974 50.4811 155.656 53.8022 157.109C54.2767 157.316 54.8144 157.444 55.3205 157.444C57.9773 157.492 60.65 157.46 63.3069 157.508C64.0186 157.524 64.1925 157.252 64.1925 156.582C64.1767 151.554 64.1767 146.525 64.1925 141.497C64.2083 138.384 65.8531 135.511 68.8895 134.521C69.8384 134.25 70.8664 134.154 72.005 133.946Z" fill="#59A926"/>
</g>
<defs>
<clipPath id="clip0_14_777">
<rect width="220" height="169" fill="white"/>
</clipPath>
</defs>
</svg>
