<svg width="0" height="0" class="hidden">
  <symbol xmlns="http://www.w3.org/2000/svg" viewBox="0 0 13 13" id="ic_arr_down">
    <path d="M3.25 4.875L6.5 8.125L9.75 4.875" stroke="currentColor" stroke-width="2" stroke-linecap="round" stroke-linejoin="round" fill="none"></path>
  </symbol>
  <symbol xmlns="http://www.w3.org/2000/svg" viewBox="0 0 24 24" id="ic_arr_left">
    <path d="M15 18L9 12L15 6" stroke="currentColor" stroke-width="2" stroke-linecap="round" stroke-linejoin="round" fill="none"></path>
  </symbol>
  <symbol xmlns="http://www.w3.org/2000/svg" viewBox="0 0 19 19" id="ic_cart">
    <path d="M7.12516 17.4167C7.56239 17.4167 7.91683 17.0623 7.91683 16.625C7.91683 16.1878 7.56239 15.8334 7.12516 15.8334C6.68794 15.8334 6.3335 16.1878 6.3335 16.625C6.3335 17.0623 6.68794 17.4167 7.12516 17.4167Z" stroke="currentColor" stroke-width="1.5" stroke-linecap="round" stroke-linejoin="round" fill="none"></path>
    <path d="M15.8332 17.4167C16.2704 17.4167 16.6248 17.0623 16.6248 16.625C16.6248 16.1878 16.2704 15.8334 15.8332 15.8334C15.3959 15.8334 15.0415 16.1878 15.0415 16.625C15.0415 17.0623 15.3959 17.4167 15.8332 17.4167Z" stroke="currentColor" stroke-width="1.5" stroke-linecap="round" stroke-linejoin="round" fill="none"></path>
    <path d="M0.791504 0.791626H3.95817L6.07984 11.392C6.15223 11.7565 6.35051 12.0839 6.63998 12.3169C6.92944 12.55 7.29164 12.6737 7.66317 12.6666H15.3582C15.7297 12.6737 16.0919 12.55 16.3814 12.3169C16.6708 12.0839 16.8691 11.7565 16.9415 11.392L18.2082 4.74996H4.74984" stroke="currentColor" stroke-width="1.5" stroke-linecap="round" stroke-linejoin="round" fill="none"></path>
  </symbol>
  <symbol xmlns="http://www.w3.org/2000/svg" viewBox="0 0 7 7" id="ic_check">
    <path d="M5.83335 1.75L2.62502 4.95833L1.16669 3.5" stroke="currentColor" stroke-linecap="round" stroke-linejoin="round" fill="none"></path>
  </symbol>
  <symbol xmlns="http://www.w3.org/2000/svg" viewBox="0 0 46 46" id="ic_close">
    <path d="M34.5 11.5L11.5 34.5" stroke="currentColor" stroke-width="2" stroke-linecap="round" stroke-linejoin="round" fill="none"></path>
    <path d="M11.5 11.5L34.5 34.5" stroke="currentColor" stroke-width="2" stroke-linecap="round" stroke-linejoin="round" fill="none"></path>
  </symbol>
  <symbol xmlns="http://www.w3.org/2000/svg" viewBox="0 0 13 13" id="ic_email">
    <path d="M2.16683 2.16663H10.8335C11.4293 2.16663 11.9168 2.65413 11.9168 3.24996V9.74996C11.9168 10.3458 11.4293 10.8333 10.8335 10.8333H2.16683C1.571 10.8333 1.0835 10.3458 1.0835 9.74996V3.24996C1.0835 2.65413 1.571 2.16663 2.16683 2.16663Z" stroke="currentColor" stroke-linecap="round" stroke-linejoin="round" fill="none"></path>
    <path d="M11.9168 3.25L6.50016 7.04167L1.0835 3.25" stroke="currentColor" stroke-linecap="round" stroke-linejoin="round" fill="none"></path>
  </symbol>
  <symbol xmlns="http://www.w3.org/2000/svg" viewBox="0 0 22 22" id="ic_fire">
    <path d="M19.9841 12.4923L19.8869 10.7588L18.8287 12.1352C18.7444 12.2448 18.565 12.4386 18.336 12.6152C18.4265 12.3154 18.5073 11.9735 18.5607 11.5963C18.7455 10.2901 18.6304 8.28541 17.0329 6.15244L16.3626 5.25748L15.9233 6.28577C15.4167 7.47188 14.5969 8.06695 13.8351 7.80171C13.2485 7.59761 12.7718 6.92635 12.5272 5.95994C12.2991 5.05854 12.1665 3.47235 12.8308 1.03447L13.1127 0L12.0667 0.235641C8.5383 1.03048 6.16071 3.53616 5.19082 7.48172C4.78313 9.14027 4.70635 10.7116 4.71778 11.7744C3.8841 11.1004 3.46777 10.509 3.45686 10.4934L2.66275 9.32667L2.30104 10.6927C2.10223 11.4436 2.00146 12.2203 2.00146 13.0014C2.00146 17.9262 5.97822 21.9389 10.8891 21.9986C10.926 21.9996 10.963 22 11.0001 22C11.0372 22 11.0742 21.9996 11.1111 21.9986C16.022 21.9389 19.9988 17.9262 19.9988 13.0014C19.9988 12.8366 19.9939 12.6653 19.9841 12.4923ZM11.0002 20.7099C9.33572 20.7099 7.98164 19.3558 7.98164 17.6914C7.98164 14.7868 9.35522 13.4856 10.4259 12.9125C10.2895 13.65 10.4104 14.3487 10.6377 14.869C10.9764 15.6444 11.5808 16.1523 12.2545 16.2275C12.5192 16.257 12.9621 16.2342 13.4265 15.8963C13.8075 16.412 14.0186 17.0411 14.0186 17.6914C14.0186 19.3558 12.6645 20.7099 11.0002 20.7099ZM14.8111 19.6997C15.1285 19.0997 15.3088 18.4162 15.3088 17.6914C15.3088 16.4699 14.7872 15.301 13.8778 14.4846L13.3487 14.0096L12.9273 14.5822C12.82 14.728 12.6083 14.9694 12.3979 14.9454C12.231 14.9268 11.9876 14.7362 11.82 14.3526C11.5883 13.8222 11.5413 12.9837 12.104 12.2212L12.997 11.011L11.5048 11.198C11.4545 11.2044 10.2589 11.3627 9.07331 12.2537C7.10486 13.7332 6.69163 16.0273 6.69163 17.6914C6.69163 18.4164 6.87189 19.1 7.18955 19.7001C4.86331 18.3715 3.29177 15.8666 3.29177 13.0014C3.29177 12.7569 3.30329 12.5131 3.32615 12.2707C3.76121 12.6829 4.351 13.163 5.10187 13.6085L6.2228 14.2731L6.07168 12.9785C6.06876 12.9534 5.7862 10.4356 6.45191 7.75693C7.2131 4.69373 8.84995 2.69238 11.3247 1.79309C10.9796 3.49731 10.9614 5.03104 11.2767 6.27653C11.6296 7.67095 12.4076 8.67101 13.4113 9.02017C14.1089 9.2629 14.8608 9.17267 15.5287 8.76614C15.9131 8.53213 16.2609 8.19908 16.5599 7.78211C17.2057 8.93544 17.4515 10.1351 17.291 11.3595C17.1392 12.5177 16.6625 13.2744 16.6593 13.2795L16.1074 14.1261L17.1077 14.2702C17.6113 14.3428 18.1372 14.232 18.6508 13.9485C18.3475 16.4123 16.8768 18.5198 14.8111 19.6997Z" fill="currentColor"></path>
  </symbol>
  <symbol xmlns="http://www.w3.org/2000/svg" viewBox="0 0 13 13" id="ic_location">
    <path d="M11.375 5.41663C11.375 9.20829 6.5 12.4583 6.5 12.4583C6.5 12.4583 1.625 9.20829 1.625 5.41663C1.625 4.1237 2.13861 2.88372 3.05285 1.96948C3.96709 1.05524 5.20707 0.541626 6.5 0.541626C7.79293 0.541626 9.03291 1.05524 9.94715 1.96948C10.8614 2.88372 11.375 4.1237 11.375 5.41663Z" stroke="currentColor" stroke-linecap="round" stroke-linejoin="round" fill="none"></path>
    <path d="M6.5 7.04163C7.39746 7.04163 8.125 6.31409 8.125 5.41663C8.125 4.51916 7.39746 3.79163 6.5 3.79163C5.60254 3.79163 4.875 4.51916 4.875 5.41663C4.875 6.31409 5.60254 7.04163 6.5 7.04163Z" stroke="currentColor" stroke-linecap="round" stroke-linejoin="round" fill="none"></path>
  </symbol>
  <symbol xmlns="http://www.w3.org/2000/svg" viewBox="0 0 24 24" id="ic_menu">
    <path d="M12 13C12.5523 13 13 12.5523 13 12C13 11.4477 12.5523 11 12 11C11.4477 11 11 11.4477 11 12C11 12.5523 11.4477 13 12 13Z" stroke="currentColor" stroke-width="2" stroke-linecap="round" stroke-linejoin="round" fill="none"></path>
    <path d="M19 13C19.5523 13 20 12.5523 20 12C20 11.4477 19.5523 11 19 11C18.4477 11 18 11.4477 18 12C18 12.5523 18.4477 13 19 13Z" stroke="currentColor" stroke-width="2" stroke-linecap="round" stroke-linejoin="round" fill="none"></path>
    <path d="M5 13C5.55228 13 6 12.5523 6 12C6 11.4477 5.55228 11 5 11C4.44772 11 4 11.4477 4 12C4 12.5523 4.44772 13 5 13Z" stroke="currentColor" stroke-width="2" stroke-linecap="round" stroke-linejoin="round" fill="none"></path>
  </symbol>
  <symbol xmlns="http://www.w3.org/2000/svg" viewBox="0 0 24 24" id="ic_minus">
    <path d="M5 12H19" stroke="currentColor" stroke-width="2" stroke-linecap="round" stroke-linejoin="round" fill="none"></path>
  </symbol>
  <symbol xmlns="http://www.w3.org/2000/svg" viewBox="0 0 24 24" id="ic_plus">
    <path d="M12 5V19" stroke="currentColor" stroke-width="2" stroke-linecap="round" stroke-linejoin="round" fill="none"></path>
    <path d="M5 12H19" stroke="currentColor" stroke-width="2" stroke-linecap="round" stroke-linejoin="round" fill="none"></path>
  </symbol>
  <symbol xmlns="http://www.w3.org/2000/svg" viewBox="0 0 24 22" id="ic_new">
    <path d="M12.3613 22C6.4676 21.9593 1.7697 18.3006 0.676365 13.2028C-0.579257 7.34072 3.30719 1.63311 9.47426 0.275315C15.7865 -1.115 22.2099 2.9096 23.3459 8.98308C23.4569 9.60099 23.4996 10.2352 23.5424 10.8612C23.5765 11.2759 23.363 11.5117 23.0213 11.5198C22.6796 11.5279 22.4661 11.2921 22.4576 10.8775C22.4319 8.92616 21.8426 7.13745 20.7236 5.51135C18.4515 2.2185 14.2063 0.437925 10.2003 1.21032C5.77573 2.07215 2.88865 4.60887 1.83803 8.78794C0.39449 14.4793 4.48594 20.0975 10.5761 20.8536C14.5651 21.3496 17.8365 19.9918 20.3563 16.9997C20.399 16.9428 20.4417 16.8859 20.493 16.829C20.7322 16.5282 21.0567 16.4469 21.3215 16.6339C21.5949 16.8209 21.6205 17.1217 21.3813 17.4388C20.6894 18.3575 19.8694 19.1462 18.9213 19.821C16.8542 21.2601 14.548 21.9919 12.3613 22Z" fill="currentColor" stroke="currentColor" stroke-width="0.2"></path>
    <path d="M17.4695 11.7799C17.0765 12.3084 16.7178 12.7963 16.359 13.2841C16.1968 13.5036 16.0088 13.6662 15.6928 13.5849C15.3853 13.5036 15.2999 13.276 15.2657 13.0077C15.1034 11.7718 14.9411 10.5279 14.7788 9.29202C14.7618 9.19446 14.7532 9.08876 14.7532 8.9912C14.7447 8.67411 14.9326 8.44645 15.2315 8.41393C15.522 8.38141 15.7782 8.57654 15.8295 8.8855C15.8893 9.2595 15.9234 9.6335 15.9747 10.0075C16.043 10.536 16.1199 11.0726 16.1968 11.6986C16.4615 11.349 16.6751 11.0563 16.8886 10.7636C17.2901 10.227 17.6488 10.227 18.0503 10.7718C18.2553 11.0482 18.4688 11.3328 18.7336 11.6824C18.802 11.2189 18.8532 10.8368 18.9045 10.4547C18.9728 9.95872 19.0326 9.47089 19.1009 8.97493C19.1522 8.5928 19.3913 8.37328 19.7074 8.41393C20.0405 8.45458 20.2284 8.71476 20.1857 9.08876C20.032 10.2839 19.8697 11.4873 19.7074 12.6824C19.6903 12.8207 19.6732 12.967 19.6561 13.1052C19.622 13.3573 19.4938 13.5443 19.212 13.6012C18.9472 13.6581 18.7593 13.5361 18.614 13.341C18.2468 12.8288 17.8709 12.3247 17.4695 11.7799Z" fill="currentColor" stroke="currentColor" stroke-width="0.2"></path>
    <path d="M7.07394 11.5116C7.07394 10.6579 7.07394 9.90179 7.07394 9.14565C7.07394 9.03182 7.07394 8.918 7.09956 8.8123C7.15935 8.55213 7.40706 8.38952 7.66331 8.41391C7.9281 8.4383 8.1331 8.6253 8.15872 8.88548C8.16727 8.94239 8.16727 9.00743 8.16727 9.06435C8.16727 10.3652 8.16727 11.6661 8.16727 12.967C8.16727 13.2434 8.10748 13.4711 7.79998 13.5768C7.48394 13.6825 7.27894 13.5361 7.09956 13.3003C6.39061 12.3897 5.67311 11.4791 4.9129 10.5197C4.90436 10.6579 4.88728 10.7474 4.88728 10.8287C4.88728 11.5523 4.88728 12.2678 4.88728 12.9914C4.88728 13.3735 4.66519 13.6174 4.34061 13.6174C4.01603 13.6174 3.79395 13.3735 3.79395 12.9914C3.79395 11.6824 3.79395 10.3734 3.79395 9.06435C3.79395 8.77165 3.86228 8.544 4.17832 8.4383C4.48582 8.34073 4.68228 8.49521 4.85311 8.71474C5.50227 9.54404 6.15998 10.3734 6.80914 11.2027C6.88602 11.2758 6.95435 11.3571 7.07394 11.5116Z" fill="currentColor" stroke="currentColor" stroke-width="0.2"></path>
    <path d="M10.3626 11.5279C10.3626 11.8531 10.3455 12.1295 10.3712 12.3978C10.3797 12.4629 10.5334 12.5605 10.6189 12.5605C11.3534 12.5767 12.088 12.5686 12.8311 12.5686C12.9336 12.5686 13.0447 12.5686 13.1472 12.5767C13.4291 12.6092 13.617 12.8044 13.6341 13.0564C13.6511 13.3085 13.4803 13.5361 13.1984 13.5849C13.0105 13.6174 12.8141 13.6093 12.6261 13.6093C11.7549 13.6093 10.8751 13.6093 10.0039 13.6093C9.4572 13.6093 9.26074 13.4304 9.26074 12.9182C9.26074 11.6417 9.26074 10.3571 9.26074 9.0806C9.26074 8.58464 9.4572 8.39764 9.97824 8.39764C10.9776 8.39764 11.9855 8.39764 12.9849 8.39764C13.3693 8.39764 13.5913 8.56838 13.6341 8.86108C13.6768 9.17817 13.4376 9.43022 13.0532 9.43835C12.2674 9.44648 11.473 9.44648 10.6872 9.43835C10.4395 9.43835 10.3541 9.49526 10.3541 9.73917C10.3626 10.479 10.3541 10.479 11.1484 10.4872C11.4218 10.4872 11.7036 10.479 11.977 10.4953C12.3186 10.5116 12.5322 10.7148 12.5407 10.9994C12.5493 11.3002 12.3272 11.5198 11.9684 11.5279C11.4474 11.536 10.9264 11.5279 10.3626 11.5279Z" fill="currentColor" stroke="currentColor" stroke-width="0.2"></path>
    <path d="M11.9854 16.9917C10.7042 16.9917 9.42295 16.9917 8.14171 16.9917C8.02213 16.9917 7.90254 16.9998 7.7915 16.9754C7.55233 16.9266 7.39859 16.7803 7.36442 16.5363C7.33879 16.2843 7.43275 16.0892 7.689 15.9997C7.82567 15.9509 7.97942 15.9428 8.12462 15.9428C10.7042 15.9428 13.2923 15.9428 15.8719 15.9428C15.9573 15.9428 16.0427 15.9428 16.1281 15.9509C16.4356 15.9835 16.6492 16.203 16.6406 16.4794C16.6406 16.7559 16.4271 16.9673 16.1111 16.9835C15.9402 16.9917 15.7694 16.9917 15.5986 16.9917C14.4027 16.9917 13.1898 16.9917 11.9854 16.9917Z" fill="currentColor" stroke="currentColor" stroke-width="0.2"></path>
    <path d="M22.8247 14.7964C22.8162 15.1541 22.5172 15.455 22.1927 15.4387C21.8937 15.4224 21.6631 15.1785 21.6716 14.8858C21.6887 14.5362 21.9706 14.2516 22.2781 14.2516C22.577 14.2598 22.8333 14.5118 22.8247 14.7964Z" fill="currentColor" stroke="currentColor" stroke-width="0.2"></path>
  </symbol>
  <symbol xmlns="http://www.w3.org/2000/svg" viewBox="0 0 24 24" id="ic_search">
    <path d="M11 19C15.4183 19 19 15.4183 19 11C19 6.58172 15.4183 3 11 3C6.58172 3 3 6.58172 3 11C3 15.4183 6.58172 19 11 19Z" stroke="currentColor" stroke-width="2" stroke-linecap="round" stroke-linejoin="round" fill="none"></path>
    <path d="M20.9999 21L16.6499 16.65" stroke="currentColor" stroke-width="2" stroke-linecap="round" stroke-linejoin="round" fill="none"></path>
  </symbol>
  <symbol xmlns="http://www.w3.org/2000/svg" viewBox="0 0 24 24" id="ic_zoom">
    <path d="M11 19C15.4183 19 19 15.4183 19 11C19 6.58172 15.4183 3 11 3C6.58172 3 3 6.58172 3 11C3 15.4183 6.58172 19 11 19Z" stroke="currentColor" stroke-width="2" stroke-linecap="round" stroke-linejoin="round" fill="none"></path>
    <path d="M21 21L16.65 16.65" stroke="currentColor" stroke-width="2" stroke-linecap="round" stroke-linejoin="round" fill="none"></path>
    <path d="M11 8V14" stroke="currentColor" stroke-width="2" stroke-linecap="round" stroke-linejoin="round" fill="none"></path>
    <path d="M8 11H14" stroke="currentColor" stroke-width="2" stroke-linecap="round" stroke-linejoin="round" fill="none"></path>
  </symbol>
</svg>